<?xml version="1.0" encoding="utf-8"?>
<!-- Generator: Adobe Illustrator 19.0.0, SVG Export Plug-In . SVG Version: 6.00 Build 0)  -->
<svg version="1.1" id="圖層_1" xmlns="http://www.w3.org/2000/svg" xmlns:xlink="http://www.w3.org/1999/xlink" x="0px" y="0px"
	 viewBox="0 0 1080 1920" style="enable-background:new 0 0 1080 1920;" xml:space="preserve">
<style type="text/css">
	.st0{fill:#CCCCCC;}
	.st1{fill:#ADADAD;}
</style>
<g id="XMLID_1_">
	<g id="XMLID_13_">
		<path id="XMLID_3_" class="st0" d="M509.8,754.8c-72.8,37.5-141.3,83.1-204.1,135.7C243,943,186.1,1002.5,136.4,1067.6
			c-28,36.6-53.7,75-76.8,114.8c-0.8,1.4,1.2,3.1,2.4,1.8c79.6-89.8,159.2-179.5,236.5-271.3c76.5-90.8,150.8-183.4,220.4-279.6
			c39.4-54.5,77.3-110.1,113.2-167c0.9-1.4-1.2-3.1-2.4-1.8C557.5,545,488.6,628.2,423,714c-32.8,42.9-64.7,86.3-95.8,130.4
			c-7.6,10.8-15.1,21.6-22.6,32.4c-5.8,8.4-15.8,19.2-14.6,30.3c0.9,9,9.4,12.4,17.3,13.2c11.2,1.1,22.8-0.2,33.8-2.9
			c54.7-13.3,91-59.5,123.5-102c1.2-1.5-1.4-3-2.6-1.5c-28.9,37.8-60,77.9-105.8,95.7c-11.3,4.4-67.4,19.7-63-6.4
			c1-5.7,4.4-10.8,7.7-15.5c3.5-5.2,7.1-10.3,10.7-15.5c7.3-10.6,14.7-21.1,22.1-31.6C392.7,757,455,675.5,520.1,596.5
			c36.3-44.1,73.5-87.4,111.6-129.9c-0.8-0.6-1.6-1.2-2.4-1.8C565.5,566,495.4,663,421.6,757.1C348,851,270.7,942,192.3,1031.9
			c-43.9,50.3-88.2,100.3-132.5,150.2c0.8,0.6,1.6,1.2,2.4,1.8c41.2-70.8,90.3-136.9,146.1-196.8c55.6-59.7,117.8-113.3,185.1-159.4
			c37.8-25.9,77.2-49.4,118-70.4C513.1,756.5,511.5,753.9,509.8,754.8L509.8,754.8z"/>
	</g>
</g>
<g id="XMLID_2_">
	<g id="XMLID_20_">
		<path id="XMLID_4_" class="st0" d="M487.9,927C560.1,789,636.9,653.5,718.2,520.7c40.4-66.1,82-131.6,124.6-196.4
			c41.4-63,84.9-124.6,126.5-187.5c51.4-77.7,96.6-160.8,123.2-250.6c1.8-13.3,3.6-26.6,5.4-39.9c0.8-20.7-3.5-39.9-12.9-57.8
			c-3.6-12.7-10-23.7-19.3-33.1c-10.6-16.3-24.6-29.2-42.1-38.6c-23.6-12.5-49.1-19.3-75.7-20.5c-20.7-0.8-39.9,3.5-57.8,12.9
			c-18.6,6-34.7,16.4-48.3,31C743.5-146.8,651-28.5,564.9,93.9c-79.2,112.4-152.7,229-219.7,349.1c-24.4,43.7-45.3,88.3-64.2,134.7
			c-19.4,47.7-28.2,95.9-33.6,147.2c1.8,13.3,3.6,26.6,5.4,39.9c4.6,19.5,13.6,36.5,26.8,51c6.7,11.3,15.6,20.2,26.9,26.9
			c14.5,13.3,31.5,22.2,51,26.8c26.4,6,53.4,6,79.8,0c37.1-8.5,69.8-37.8,89.6-68.9c57.7-90.5,103.5-188.7,139.7-289.6
			C703,409.3,723.8,304.8,737,197.8c5.4-43.5,9.9-88.1,7.9-132c-0.7-16.3-3-32.3-5.2-48.4c-2.1-16-4-31.9-8.1-47.5
			c-5.4-20.4-14.5-39.7-22.9-58.9c-4-9.2-8.6-18-14.4-26.1c-25.1-35.2-54.3-69.9-94.7-88.2c-33.7-15.3-60.1-25.1-98.4-24.7
			c-17.4,0.2-35.9,2.6-52.7,8.2c-31.7,10.6-49.6,22.8-75.4,43.8c-25.7,20.9-46.7,52.8-66.3,78.5c-13.8,18.1-26.7,36.8-38.5,56.3
			C202.4,67.3,167,189.7,157.5,315.6c1.8,13.3,3.6,26.6,5.4,39.9c4.6,19.5,13.6,36.5,26.8,51c6.7,11.3,15.6,20.2,26.9,26.9
			c14.5,13.3,31.5,22.2,51,26.8c26.4,6,53.4,6,79.8,0c19.5-4.6,36.5-13.6,51-26.8c16.3-10.6,29.2-24.6,38.6-42.1
			c20.1-37.6,37.1-77.7,49.3-118.6c12.2-40.9,18.2-83.7,22.2-126c2.9-30.4,2.8-61.1-0.6-91.5c-2.1-18.9-3.1-38.3-7.8-56.7
			c-7.2-28.3-22.9-55.6-43.5-76.2c-54-53.9-142.2-62.2-206-20.8c-19.8,12.9-38.9,29.3-56.6,45.3c-10.9,9.9-21.4,20.3-31.3,31.2
			c-26.8,29.4-51.5,61.5-72.8,95.2c-21,33.2-36.3,68.8-51.2,105.1c-10.8,26.2-19.5,53.2-25.5,81C5.5,295.8-1.6,335,1.7,372.7
			c2,23.4,4.1,50.3,12.3,73.2c13.9,39,27.6,64,54.9,95c28.8,32.8,75,59.6,118.3,66.1c15.9,2.4,35.9,6.4,53.4,6
			c17.9-0.4,36.1-3.6,53.5-6.6c23.4-4,46.7-14.9,67.4-25.2c39.7-19.8,77.9-58.2,98-97.5c23.1-45.2,37.6-97,32.6-148.2
			c-5-51-16.3-99.7-44.9-143.4C417.6,146.9,384,115.2,340,84.3c-34.4-24.2-75.3-41.3-115-54.2c-77.3-25-164.2-8-221.9,50.3
			c-43.8,44.3-70.3,109.5-67.9,172c1.1,29.3,5.6,60.2,16,87.9c10.3,27.8,22.6,54.8,35.8,81.3C10.2,468,66.4,496,116.5,496
			c54.8,0,100.3-29.3,129.5-74.3c20.6-31.8,36.6-65.3,51.3-100.2c14.7-34.8,27.7-69.7,36.1-106.6c9.7-42.6,15.6-86.7,17.7-130.4
			c0.6-13.6,0.5-27.3-0.7-40.9c-2.2-25.1-4.9-50.9-11.3-75.3c-1.7-6.4-3.7-12.7-6.1-18.9c-6.8-17-13.3-34.6-22.1-50.8
			c-2.9-5.2-6.2-10.1-9.7-14.9c-10.7-14.4-21.2-30.1-34.5-42.4c-28.8-26.8-59.3-45.5-96.9-57.1c-9.1-2.8-19-3.4-28.3-4.6
			c-8.5-1.1-19.1-3.4-28.4-3.2c-15.1,0.3-31.9,3-46.7,6c-3.5,0.7-6.7,1.7-10.1,3c-13.9,5.2-29.4,10.6-42.2,18.5
			c-12.2,7.6-24,17.6-35.1,26.8c-13.9,11.5-24.1,27.6-34.8,41.8C-63.7-116.8-69.7-105-75-92.7C-86.1-67-97.6-41-106.5-14.4
			c-7.6,22.6-11.3,45-14.5,68.6c-2.1,15.3-4.5,30.3-4.1,45.7c0.5,20.1,3.7,40.5,7.4,60.2c1.4,7.5,3.6,14.7,6.3,21.8
			c6.8,17.5,13.5,35.9,23.1,52.1c9.5,16.1,21.8,30.8,33.8,45c4.5,5.3,9.5,9.9,14.9,14.2c14.7,11.7,29.3,25,46.6,33
			c17.1,7.9,35.2,17.2,54.1,20.4c13.3,1.8,26.6,3.6,39.9,5.4c20.7,0.8,39.9-3.5,57.8-12.9c12.7-3.6,23.7-10,33.1-19.3
			c16.3-10.6,29.2-24.6,38.6-42.1c8.5-18.3,17.2-37.1,23.3-56.4c4.6-14.8,6.3-29.7,8.4-45.1c1.9-14,4.2-27.9,4.3-42
			c0.1-21.9-3.7-44.2-7.3-65.6c-1.3-7.9-3.1-15.7-5.5-23.3c-1.2-3.7-2.6-7.2-4-10.8c-6-14.7-11.1-30.8-19.6-44.4
			c-17.2-27.3-37.4-47.9-64.3-65.5c-8.1-5.3-16.6-8.1-25.8-12c-21-8.9-23-9.2-46-12.3c-25.5-3.4-47.9-2.8-73.7,3.7
			c-8.8,2.2-18.5,7.2-26.2,10.4c-9.3,3.9-18.8,7.2-27.2,12.7c-33,21.8-60.1,48.1-80.5,82.3c-10.1,17-17,36.3-24.4,54.5
			c-3.2,7.9-6.1,16-8.2,24.3c-7,27.2-10.6,55.8-11.4,83.8c-0.8,29,4.1,58.5,8.6,86.9c2.7,17.1,6.9,33.9,12.3,50.3
			c13.7,42.3,32.1,84.1,54.5,122.6c21.4,36.8,47.6,71.2,75.1,103.5c28.3,33.2,61.2,59.7,95.8,86c36.8,27.9,77.6,46.8,120.8,63
			c15.6,5.8,31.7,10.4,48,13.3c29,5.2,59,9.6,88.6,9.4c37-0.3,80.6-16.1,106.1-43.9c25.9-28.2,46.6-66.5,43.9-106.1
			c-7-103.5-34.2-201.7-84.3-292.8c-24.2-44.1-55.1-85.2-88.2-122.9C303,117.8,280.4,95.5,253.5,79c-13.8-8.5-29.3-14.7-45.1-18.3
			c-28.5-6.5-57.6-7.3-86.1,0.8c-42.2,12-79.5,42-100.7,80.3c-15,27.2-24.5,60.1-33.8,89.9c-6.6,21.1-12.7,42.4-18.1,63.8
			c-10.8,42.2-19.4,85-25.8,128.1C-70.9,522.9-79,622.1-73.5,722.4c5.4,98.8,20.1,198.2,45.5,293.9c8.3,31.3,19.2,60.6,32.9,90.1
			c6.5,13.9,15.4,25.1,24.8,37.2c18.9,24.5,32.3,36.1,59.2,55.5c12.9,9.3,27.4,14.7,42,20.9c14.8,6.2,29,12.2,44.4,16.3
			c30.8,8.1,62.4,11.9,93.9,16c38.2,5,76.6,5.9,114.9,2.3c50.4-4.8,101-12.3,149.2-28c48-15.5,95.6-35.9,139-61.8
			c16.7-10,32.8-21.1,48.2-33c24.5-18.8,49.5-37,70.3-60c20.4-22.7,41.6-48.2,54.7-76.2c18.8-40.2,31.3-77,31.9-122.1
			c0.7-44.7-12.8-86.8-33.3-125.9c-14.8-28.1-36.5-52.9-56.9-77c-24.9-29.5-52.5-56.7-82.2-81.3c-38.6-32-79-62.5-122.4-87.7
			c-44-25.6-91.2-46.1-138.9-63.8c-17.8-6.6-35.9-12.5-54.3-17.5c-10-2.7-20-5.1-30.2-6.8c-22.2-3.7-47.4-8.5-70.6-6.6
			c-33.5,2.7-52.1,6.5-81.1,18.8c-27.9,11.8-41.5,21.1-66.6,42.2c-15.3,12.8-26.6,30.1-38.5,45.8c-5.7,7.6-10.8,15.7-15,24.2
			C58,598.6,45,660.3,39.7,727.7c-4.4,56,2.9,112.3,12.1,167.4c6.9,41.6,17.6,82.5,30.6,122.6c27.3,84,63.8,166.8,110.9,241.7
			c26.9,42.7,57.6,83.3,90.1,122c24.6,29.3,51.4,56.9,80.1,82.1c37.8,33.1,77.9,66.4,123,89.1c27.8,14,57.7,27.7,88.3,34.6
			c20.7,4.7,42.1,7.3,63.3,9c22.2,1.7,44.6-2.6,66.4-5.8c8.9-1.3,17.5-3.1,26-6.2c20.3-7.3,41.8-15.4,60.1-27.3
			c25-16.3,49.8-35.8,68.6-59.3c19.4-24.2,38.5-48.5,53.1-75.9c15-28.1,27.6-58,37.4-88.2c6.3-19.3,10.6-39,13.4-59
			c4.5-32.3,9.3-64.1,7.9-96.8c-1.3-31.5-5.6-63.4-12.4-94.2c-4-18.3-9.7-36-16.8-53.3c-11.3-27.8-22.6-55.6-38.2-81.3
			c-15.8-25.8-34.7-50-54.3-73c-12.1-14.2-25.4-27.4-39.8-39.3c-23.3-19.4-48-39.1-74.6-54.1c-27.3-15.3-57.1-28.5-87.5-36.3
			c-20.9-5.4-43-7.6-64.3-9.8c-17-1.7-32.8,0.7-49.7,3c-15.5,2.1-30.7,3.5-45.4,8.9c-19.7,7.3-40.5,15.1-58.5,26.3
			c-17.5,10.8-33.9,24.2-49.6,37.4c-7.9,6.6-15.2,13.9-22.2,21.5c-35.5,38.9-67.7,83.4-90.5,131.1c-13.9,28.9-26.6,58.8-36.5,89.4
			c-10.4,32.1-15,64.4-19.2,97.9c-4.4,34.5-0.4,67.3,5.5,101.7c5.1,29.4,17.8,58.4,32.2,84.2c27.6,49.5,70.1,88,116.9,118.8
			c38.2,25.2,82.5,42.7,125.9,56.5c49.7,15.8,101.2,23.6,152.9,30c54.8,6.7,110.5,3.3,164.4-9.1c60.3-13.9,113.2-44.7,159.4-85.1
			c43.7-38.3,76.4-92.3,92.9-147.8c5.7-19.3,7.6-41.3,9.8-60.6c1-9.2,1.6-18.3,0.9-27.5c-1.5-20.3-4-41.3-8.7-61.3
			c-3.4-14.2-9.5-27.4-15.2-40.9c-20.2-48-51.6-91.4-92.3-124.3c-38.7-31.3-77.7-57.8-122.5-79.4C783,882.8,730.9,861,677.9,842.6
			c-39.6-13.7-80.1-26.1-121.5-33c-31.7-5.3-64.2-10.4-96.5-10.7c-31.6-0.3-64.2,3.9-94.9,10.7c-8.9,2-17.7,4.6-26.2,7.8
			c-20,7.6-40.5,15.5-59.2,26c-12.9,7.3-24.2,16.5-35.9,25.6c-12.4,9.6-24.6,18.8-35.2,30.4c-19.6,21.4-38.6,45.5-51.9,71.6
			c-13.7,26.7-26.2,55.5-33.1,84.9c-15.1,64.5-13.5,128.4,1.2,192.9c6,26.2,15.9,50.7,26.4,75.4c10.4,24.6,21.2,48.6,34.9,71.6
			c15.7,26.3,34.6,50.3,53.4,74.4c11.6,14.9,24.1,29.2,37.6,42.4c21.7,21.3,46.3,39.9,70.8,57.7c14.7,10.7,30.2,20.1,46.5,28.1
			c19,9.3,38.7,17.4,58.5,25c9.1,3.5,18.5,7,28.1,8.9c16.2,3.2,34.2,6.4,50.8,6.6c8.4,0.1,17.3-1.8,25.3-2.9
			c6.9-0.9,17.4-1.6,25.3-3.7c7.5-2,15.8-6.3,22.3-9c5.3-2.2,15.1-5.6,21.5-9.4c6.6-3.9,12.7-9.4,18.5-13.9
			c5.7-4.4,13.5-9.6,19.2-15.1c46.3-44.6,59.4-106.9,68.3-167.5c8.2-56.5,15.1-113.1,15.6-170.2c0.5-57.2-5.7-113.4-14.1-169.9
			c-6.4-43.1-16.4-85.6-30.4-126.9c-15.9-46.8-35.4-92.9-58.8-136.5c-23.5-43.7-52.7-83-83.4-121.9c-23.6-29.9-50.1-57.4-79.3-81.9
			c-23-19.4-47-38-71.9-54.9c-22.8-15.6-46.7-26.9-72.1-37.6c-36.9-15.6-70.5-23.8-111.5-25.8c-31.5-1.5-65.2,3.6-94.6,15.4
			c-19,7.7-39.1,15.1-56.7,26.2c-18.5,11.7-35.7,25.7-52.4,39.7c-14.6,12.2-27.7,26.2-39.9,40.8C-47.7,650.1-76,688.1-97,730.4
			c-20.9,42.1-39.1,86.7-50.5,132.4c-4.3,17.5-7.6,35.2-10,53c-4.2,30.1-8.6,60.1-9.4,90.5c-1.3,47.1,4.6,94.8,13.2,140.9
			c8.9,47.5,26.4,91.4,45.9,135.5c7.4,16.6,15.7,33,25.7,48.3c16.3,24.8,34.9,50,56.9,70.3c15.4,14.2,32.2,27.1,49.6,38.7
			c17.1,11.3,38.3,19.2,56.7,26.2c13.8,5.3,27.3,6.6,42.1,8.6c10,1.3,20.4,3.4,30.7,3.3c16.9-0.1,34.3-3.3,50.8-6.2
			c66.6-11.4,118.4-63,169.3-103.1c72.8-57.4,145.6-114.8,218.4-172.1c18.6-18.7,31.4-40.8,38.6-66.2c7.1-26.6,7.1-53.2,0-79.8
			c-7.1-25.4-20-47.5-38.6-66.2c-18.7-18.6-40.8-31.4-66.2-38.6c-24.3-9.9-49.5-17.5-75.3-22.3c-37.2-7-76.1-12.6-114.2-11.8
			c-36.5,0.8-68.7,8.9-100.8,26.1c-39.5,21.1-69.7,65.7-80,108.6c-2.9,11.9-4.3,24.3-6,36.4c-3.7,26.4-7.5,52.8-10.1,79.4
			c-5.6,55.6-6.6,111.6-2.8,167.3c2.5,37.9,4.8,77.9,14.4,114.5c4.4,16.6,12.1,32.4,19.1,48c2.3,5.1,4.6,10.1,7.8,14.7
			c21.5,31.7,39.9,49.5,70.7,71.7c26,18.7,58.8,31.2,90.5,36.5c35.2,5.9,69.8,9.6,105.3,8.5c39.2-1.1,78.1-15.9,106.1-43.9
			c14.6-13.6,25-29.7,31-48.3c9.4-17.9,13.7-37.1,12.9-57.8c-1.7-38.8-14.5-79-43.9-106.1c-10.1-7.8-20.2-15.6-30.4-23.5
			c-23.4-13.6-48.6-20.4-75.7-20.5c-37.7-2.9-77.3,2.6-113.8,11.5c-36.6,8.9-72.5,24.5-105.5,42.5c-32.7,17.8-62.8,41.3-91,65.4
			c-20.3,17.4-38.9,36.8-56.1,57.2C35.6,1551.3-2,1606.3-37.2,1663c-6.6,10.6-13,21.3-18.4,32.6c-10.7,22.2-22.4,46-27.3,70.5
			c-4.6,22.9-9.2,47.4-6.6,71c4.5,41.4,9.1,59.7,26.7,97.5c8.6,18.5,22.3,34,34.9,49.8c14,17.5,32.2,29.9,50.2,43.4
			c24.2,18,53.9,30.7,82.9,38.1c45,11.5,86.9,10.9,132.1,1.7c44.6-9,81.8-34.7,116.1-62.8c24.8-20.4,45.5-47.6,61.1-75.5
			c10.8-19.4,19.1-40.5,26.8-61.2c3.8-10.2,6.6-20.8,8.7-31.5c6.4-34.1,11-68.5,6.7-103c-3-23.8-5.4-47.9-11.9-71.1
			c-7-24.8-17.9-49.2-28.3-72.5c-10.3-22.9-23-44.6-37.6-65c-21.1-29.7-44.1-61.6-70.6-87.2c-32.8-31.7-75.4-60.8-120.6-70.9
			c-34.1-7.6-68-8.9-102.2,0.3c-16.1,4.3-32,11-46.3,19.6c-23.4,14.1-38,28.5-53.7,48.9c-7.5,9.7-14.7,18.1-20,28.9
			c-7.6,15.5-14.2,31.6-19.9,48c-4.1,11.8-7.4,24-10.1,36.2c-8,36.3-13,74.1-13.6,111.4c-0.6,37.3,4.7,75.2,11.3,111.7
			c4.3,23.7,10.9,46.9,19.7,69.3c13.5,34.4,27.8,68.8,48.1,99.8c12.4,19,26,38.6,41.6,54.8c34.5,36,81.2,54.8,130.6,55.8
			c58,1.2,114.4-34.4,143.5-83.5c12.3-20.6,20.4-43.5,25.7-66.8c9.2-40,14.8-81,18.8-121.8c6.9-69.7,0.6-138.5-10.4-207.5
			c-4.5-28-10.7-55.7-18.8-82.9c-14.1-47.3-35-87-67.9-123.7c-46.6-52-121.1-74.9-188.7-58.5c-56.9,13.9-101.7,56.5-128.7,107.1
			c-34.3,64.3-53.1,136.2-53,209.3c0.2,72.6,18.7,142,51.4,206.4c32.3,63.4,84.2,114,142.3,153.8c28.3,19.4,60,32.5,91.7,45.1
			c21.7,8.7,44.2,14.9,67.3,18.4c35.2,5.5,70.7,10.6,106.3,7.4c36.8-3.4,73.6-8.5,108.6-20.7c75-26.2,141.2-64.9,202.9-114.4
			c9.1-7.3,17.9-15,25.8-23.6c16.8-18,32.9-38.2,45.3-59.6c25.8-44.4,35.4-87.9,41-137.9c4.2-37.5-1.6-75.1-7.7-112.2
			c-4.3-26-11.5-51.4-20.1-76.3c-3.9-11.2-8-22.3-12.3-33.4c-8.5-21.5-16.3-44.4-28.4-64.3c-36.5-60.3-99.8-102.9-172.2-100.7
			c-33.3,1-70.7,10.2-98.1,29.8c-29.1,20.7-55.3,43.3-71.7,76.1c-16.3,32.7-25.4,63.3-25.9,100.3c-0.3,25,3.8,52.8,13.2,76.5
			c9.1,23.2,18.2,45.7,31.7,66.5c13.4,20.6,29,39.9,44,59.1c15.9,20.3,33.1,39.4,51.9,57.1c44.6,42,95.9,80.1,151.1,107.1
			c22.9,11.2,46.7,23.3,71.9,28.2c48.9,9.6,98.4,6.2,142.2-19.5c30-17.6,52.7-41,71.4-70.1c20.9-32.7,28.2-67.4,31.2-105.3
			c3.1-37.8-6.7-77.4-17.5-113.7c-9.8-33.2-23.1-65-37.1-96.6c-27.2-61.3-72-112.9-127.7-150.1c-66.2-44.3-155.7-54.1-231.5-32.2
			c-77.5,22.4-142.9,73.4-186.3,141.1c-13.1,20.5-22.1,44.4-30.9,66.6c-4.7,11.9-8.5,24.2-11.1,36.8c-7.6,36.9-12.5,75.8-9,113.6
			c3.5,37.5,8.6,75.3,21.3,111c12.8,35.8,28.2,71.5,47.7,104.2c19.8,33.4,44.1,64,68.1,94.4c16.6,20.9,33.9,41.5,53,60.1
			c25.9,25.2,55.1,49.1,86.9,66.4c41.5,22.7,90.3,39.2,138.3,37.5c17.4-0.6,35.6-3.3,52.5-6.7c5.4-1.1,10.5-2.6,15.6-4.4
			c38.8-14,62.9-28.1,93.7-55.6c16.7-14.9,30-34.3,42.8-52.3c7.1-9.9,13-20.6,18.5-31.4c30.5-60.9,55.3-126.2,70.3-192.8
			c14.6-65,22.9-132.6,22.7-199.4c-0.1-36.8-16.3-80.7-43.9-106.1c-10.1-7.8-20.2-15.6-30.4-23.5c-17.2-11-35.8-16.9-55.8-17.8
			c-13.3-3.6-26.6-3.6-39.9,0c-20,0.9-38.6,6.8-55.8,17.8c-10.1,7.8-20.2,15.6-30.4,23.5c-18.6,18.7-31.4,40.8-38.6,66.2
			c-4.3,30.5-9.1,60.9-9.1,91.7c0,30.3,4.6,60.1,8.8,90c6.9,48.6,24,92.5,43.7,137.3c19.3,44,47.9,83.4,79.1,119.8
			c12.9,15.1,29.7,27.8,46.1,38.6c8.4,5.5,16.8,8.4,26.4,12.4c22.7,9.6,41.7,14.2,67.2,15.5c26.7,1.3,49.1-4.8,72.7-14.8
			c8.9-3.7,17.5-6.6,25.4-11.6c8.6-5.5,23.5-17.6,31.4-24.2c2-1.7,3.9-3.2,5.7-5.1c27.5-28.7,44.5-61.2,56.6-98.9
			c8.9-27.9,10.8-58.7,13.8-87.5c5.2-50.9-0.6-101.1-8.8-151.4c-8.2-50.1-26.4-96.5-47.2-142.7c-19.9-44.2-48.3-84.9-80.6-120.9
			c-19.5-21.7-43.2-39.7-67-56.3c-7.4-5.2-15.2-9.9-23.3-13.9c-18.5-9.1-37.8-17.7-57.6-23.8c-14-4.3-28.3-5.9-42.9-7.8
			c-15-2-29.8-4.6-44.9-4c-20.4,0.7-41.2,3.7-61.2,7.9c-20,4.2-39.4,13.6-57.7,22c-8.1,3.7-15.5,8-22.6,13.3
			c-16,11.8-33.4,23.6-46.5,38.8c-12.7,14.7-25.4,30.4-35.6,47.1c-10.9,17.9-18.2,38.1-26,57.4c-6.3,15.7-10.3,32-12.8,48.7
			c-4.2,28.4-8.7,56.9-7.6,85.7c1.7,44.7,8.8,91.7,25.4,133.6c10.4,26.1,21,52.7,35.3,77c14.5,24.6,32.5,47.3,50.8,69.1
			c10.5,12.5,22,24.1,34.5,34.6c21.5,18,44.7,37.6,69.9,50.9c31.3,16.4,59.5,25.2,94.8,26.5c45.8,1.7,87-19.1,120.5-48.3
			c28.4-24.7,48.3-64.4,55.5-101.1c17.4-88.8,23.8-180.6,14.4-270.7c-9.6-91.3-27.3-180.6-62.6-265.6c-12-28.8-23.9-57.6-37.8-85.5
			c-7.8-10.1-15.6-20.2-23.5-30.4c-10.1-7.8-20.2-15.6-30.4-23.5c-11.9-5-23.9-10.1-35.8-15.1c-19.9-6.3-39.9-7.1-59.8-2.7
			c-13.5,0-26.2,3.5-37.9,10.2c-12.7,3.6-23.7,10-33.1,19.3c-11.3,6.7-20.2,15.6-26.9,26.9c-13.3,14.5-22.2,31.5-26.8,51
			c-18.8,48.5-33,98.6-42.3,149.8c-11.4,62.9-18.7,127-18.3,191c0.3,38.6,16.6,78.7,43.9,106.1c13.6,14.6,29.7,25,48.3,31
			c17.9,9.4,37.1,13.7,57.8,12.9c38.8-1.7,79-14.5,106.1-43.9c27.6-30,42.3-64.9,43.9-106.1c6.4-156.7,12.7-313.3,19.1-470
			c3.1-76.4,10.2-154.2,0.5-230.3c-6.3-49.6-15-95.9-31.5-143c-11.9-34-25.4-67.4-36.6-101.6c-25.9-78.5-42.3-159.8-53.4-241.6
			c1.8,13.3,3.6,26.6,5.4,39.9c-7.9-59.1-13.2-118.5-17.2-177.9c-2-29.4-3.7-58.9-5.2-88.3c-1.6-29.4-5.4-59.8-1.9-89.1
			c-1.8,13.3-3.6,26.6-5.4,39.9c1.2-7.7,3-15,5.7-22.2c-5,11.9-10.1,23.9-15.1,35.8c4.3-10,10-19,16.5-27.6
			c-7.8,10.1-15.6,20.2-23.5,30.4c19-24.2,40.5-46.7,61.8-68.9c21.1-21.9,42.3-44.9,66.1-63.9c-10.1,7.8-20.2,15.6-30.4,23.5
			c5.6-4.2,11.3-7.9,17.6-10.9c-11.9,5-23.9,10.1-35.8,15.1c4.2-1.8,8.4-3.1,12.8-4c-13.3,1.8-26.6,3.6-39.9,5.4
			c4.6-0.6,8.9-0.7,13.6-0.2c-13.3-1.8-26.6-3.6-39.9-5.4c4.5,0.8,8.7,1.9,13,3.5c-11.9-5-23.9-10.1-35.8-15.1
			c8.6,3.7,16.3,8.7,23.8,14.3C800,73.8,789.9,66,779.8,58.2c65.8,51.4,124.3,113.6,175.4,179.4c-7.8-10.1-15.6-20.2-23.5-30.4
			c22.6,29.3,44.2,59.5,58.8,93.7c-5-11.9-10.1-23.9-15.1-35.8c6.3,15.6,11,31.5,13.3,48.2c-1.8-13.3-3.6-26.6-5.4-39.9
			c1.9,15.6,1.8,31.1-0.1,46.7c1.8-13.3,3.6-26.6,5.4-39.9c-3.1,22.8-9.9,44.8-18.6,66c5-11.9,10.1-23.9,15.1-35.8
			c-21.2,50.2-52,95.4-77.7,143.3c-36.4,67.8-65,142.3-62.9,220.6c100,0,200,0,300,0c-14.2-120.9-36.2-240.1-67.1-357.8
			c-27.9-106.2-61.4-210.7-97-314.5c-19.9-58.1-40.4-115.9-60.9-173.7c-12.6-35.6-34.1-71.3-68.9-89.6c-11.9-5-23.9-10.1-35.8-15.1
			c-19.9-6.3-39.9-7.1-59.8-2.7c-13.5,0-26.2,3.5-37.9,10.2c-18.6,6-34.7,16.4-48.3,31c-25.4,27.7-47.6,67-43.9,106.1
			c17,178.9,48.1,356.6,97.1,529.5c13,45.9,27.3,91.4,42.6,136.6c5,11.9,10.1,23.9,15.1,35.8c9.4,17.5,22.3,31.5,38.6,42.1
			c9.4,9.3,20.4,15.7,33.1,19.3c17.9,9.4,37.1,13.7,57.8,12.9c26.6-1.2,52.1-8,75.7-20.5c17.5-9.4,31.5-22.3,42.1-38.6
			c13.3-14.5,22.2-31.5,26.8-51c11.2-62.5,22.5-124.9,33.7-187.4c-98.2-13.3-196.4-26.6-294.6-39.9c17.6,224.3,34.9,448.7,52.8,673
			c1.8,22.9,4.6,45.9,8.9,68.4c3.1,16.4,9.3,30.6,15.8,46c11.4,27,22.6,46.8,44.4,68.8c24.5,24.7,53.7,40.7,86.8,50.7
			c26.6,7.1,53.2,7.1,79.8,0c19.5-4.6,36.5-13.6,51-26.8c16.3-10.6,29.2-24.6,38.6-42.1c13.6-23.4,20.4-48.6,20.5-75.7
			c3.3-92.6-8.2-185.4-24-276.5c-13.8-79.9-33.3-158.6-52.9-237.2c-8.9-36-37.2-71.1-68.9-89.6c-17.2-11-35.8-16.9-55.8-17.8
			c-19.9-4.5-39.9-3.6-59.8,2.7c-36.3,11.7-71.3,34.2-89.6,68.9c-5,11.9-10.1,23.9-15.1,35.8c-7.1,26.6-7.1,53.2,0,79.8
			c23.5,146.5,47.1,293.1,70.6,439.6c23.6,147.3,47.3,294.5,70.9,441.8c13.3,82.8,26.6,165.7,39.9,248.5c4.6,19.5,13.6,36.5,26.8,51
			c10.6,16.3,24.6,29.2,42.1,38.6c11.9,5,23.9,10.1,35.8,15.1c19.9,6.3,39.9,7.1,59.8,2.7c13.5,0,26.2-3.5,37.9-10.2
			c18.6-6,34.7-16.4,48.3-31c26.6-28.9,44.9-65.8,43.9-106.1c-4.1-169.9-21.9-339.3-50.3-506.8c-4.6-19.5-13.6-36.5-26.8-51
			c-10.6-16.3-24.6-29.2-42.1-38.6c-11.9-5-23.9-10.1-35.8-15.1c-19.9-6.3-39.9-7.1-59.8-2.7c-13.5,0-26.2,3.5-37.9,10.2
			c-18.6,6-34.7,16.4-48.3,31c-7.8,10.1-15.6,20.2-23.5,30.4c-13.6,23.4-20.4,48.6-20.5,75.7c-2.8,25.4-5.6,50.8-8.4,76.3
			c85.4-35.4,170.7-70.7,256.1-106.1c-18.3-21.1-36.7-42.3-55-63.4c-13.6-14.6-29.7-25-48.3-31c-17.9-9.4-37.1-13.7-57.8-12.9
			c-36.8,0-80.7,16.3-106.1,43.9c-26.2,28.6-45.7,66.1-43.9,106.1c1.8,13.3,3.6,26.6,5.4,39.9c7.1,25.4,20,47.5,38.6,66.2
			c18.3,21.1,36.7,42.3,55,63.4c10.1,7.8,20.2,15.6,30.4,23.5c11.9,5,23.9,10.1,35.8,15.1c13.3,1.8,26.6,3.6,39.9,5.4
			c20.7,0.8,39.9-3.5,57.8-12.9c12.7-3.6,23.7-10,33.1-19.3c11.3-6.7,20.2-15.6,26.9-26.9c9.3-9.4,15.7-20.4,19.3-33.1
			c9.4-17.9,13.7-37.1,12.9-57.8c2.8-25.4,5.6-50.8,8.4-76.3c-98.2,13.3-196.4,26.6-294.6,39.9c6.3,37.5,12.1,75.2,17.1,112.9
			c-1.8-13.3-3.6-26.6-5.4-39.9c15.6,117.4,24.9,235.6,27.8,354c98.2-13.3,196.4-26.6,294.6-39.9c-23.5-146.5-47.1-293.1-70.6-439.6
			c-23.6-147.3-47.3-294.5-70.9-441.8c-13.3-82.8-26.6-165.7-39.9-248.5c-96.4,26.6-192.9,53.2-289.3,79.8
			c24.2,97.5,48.3,195.3,61.8,295.1c-1.8-13.3-3.6-26.6-5.4-39.9c7.8,59.3,11.8,119,9.7,178.8c63.3-48.2,126.6-96.4,189.9-144.6
			c-1.7-0.5-3.4-1-5-1.7c11.9,5,23.9,10.1,35.8,15.1c-3.9-1.7-7.5-3.8-10.9-6.3c10.1,7.8,20.2,15.6,30.4,23.5
			c-3.3-2.7-6.1-5.6-8.8-8.9c7.8,10.1,15.6,20.2,23.5,30.4c-3.7-5-6.6-10.2-9.2-15.8c5,11.9,10.1,23.9,15.1,35.8
			c-5.1-12.2-8-24.9-9.9-37.9c1.8,13.3,3.6,26.6,5.4,39.9c-5.6-42.2-7.2-85.2-10.5-127.7c-3.6-45.6-7.1-91.2-10.7-136.7
			c-7.1-91.2-14.3-182.3-21.4-273.5c-4-51.3-8-102.6-12.1-153.8c0.8-20.7-3.5-39.9-12.9-57.8c-6-18.6-16.4-34.7-31-48.3
			c-10.1-7.8-20.2-15.6-30.4-23.5c-17.2-11-35.8-16.9-55.8-17.8c-13.3-3.6-26.6-3.6-39.9,0c-20,0.9-38.6,6.8-55.8,17.8
			c-31.1,20.1-62.1,51.7-68.9,89.6C787,329.5,775.7,392,764.5,454.4c96.4,0,192.9,0,289.3,0C1009,322.8,974.1,187.9,949.7,51
			c-6.9-38.9-13-78-18.3-117.2c1.8,13.3,3.6,26.6,5.4,39.9c-4.7-35.1-8.7-70.3-12-105.6c-98.2,13.3-196.4,26.6-294.6,39.9
			c69.9,197,140,394.7,184.7,599.2c12.6,57.8,23.1,116,31,174.5c-1.8-13.3-3.6-26.6-5.4-39.9c1.4,10.8,2.8,21.6,4.1,32.4
			c-0.8,20.7,3.5,39.9,12.9,57.8c6,18.6,16.4,34.7,31,48.3c13.6,14.6,29.7,25,48.3,31c17.9,9.4,37.1,13.7,57.8,12.9
			c38.8-1.7,79-14.5,106.1-43.9c26.5-28.9,45-65.8,43.9-106.1c-0.3-11.2,0.3-22.4,1.8-33.6c-1.8,13.3-3.6,26.6-5.4,39.9
			c3.3-23.2,10.3-45.5,19.3-67.2c-5,11.9-10.1,23.9-15.1,35.8c19.8-46.7,47.8-89.2,72.4-133.5c17.8-32.2,32.9-65.8,45.9-100.2
			c12.9-33.9,18.4-70.3,20.9-106.3c0.9-12,0.4-23.9-1-35.9c-3.3-27.6-6.1-55.2-16-81.3c-15.5-41-33.9-78.4-59.6-113.8
			c-45.6-62.8-95.5-122.7-151.8-176.2c-31.7-30.1-65.3-60.1-101.4-84.7c-15.8-10.8-34.8-17.9-52.5-24.3c-3.2-1.2-6.4-2.2-9.7-3
			c-15.1-3.5-32.7-6-48.3-6.3c-9.2-0.2-20.1,2.1-28.4,3.3c-10.9,1.5-19.8,2-29.7,5.4c-17.6,6.1-36.8,13.3-52.3,24.2
			c-37.3,26.3-69.3,57.7-100.7,90.5C601.4-60,571-26.1,544.4,10.8c-4.2,5.8-8,11.9-11.1,18.4c-8.6,18.1-18.2,37.3-22.1,57.2
			c-5.6,29.1-8.3,57.3-6.9,86.7c1.7,34.8,3.6,69.5,5.7,104.2c4.2,68.9,9.7,137.7,18.7,206.1c10.7,80.8,23.2,161,45.3,239.6
			c18.8,66.7,48.3,130,66.1,196.9c4.5,17,7.9,34.2,10.4,51.7c-1.8-13.3-3.6-26.6-5.4-39.9c5.8,43.9,5.4,88.2,3.8,132.4
			c-1.7,46.2-3.7,92.4-5.6,138.6c-3.7,91.6-7.4,183.1-11.2,274.7c-2.1,52.2-4.2,104.4-6.4,156.7c100,0,200,0,300,0
			c-0.3-38.7,2.2-77.2,7.3-115.6c-1.8,13.3-3.6,26.6-5.4,39.9c8.8-63.4,24.8-125.6,47.9-185.3c-91.4,11.9-182.8,23.9-274.2,35.8
			c7.3,14.6,14.1,29.5,20.5,44.5c-5-11.9-10.1-23.9-15.1-35.8c27.9,66.1,46.7,135.6,56.5,206.6c-1.8-13.3-3.6-26.6-5.4-39.9
			c9.5,71.1,9.7,143.1,0.5,214.2c1.8-13.3,3.6-26.6,5.4-39.9c-2.7,20-4.5,41.6-12.1,60.5c5-11.9,10.1-23.9,15.1-35.8
			c-1.6,3.5-3.4,6.6-5.6,9.7c7.8-10.1,15.6-20.2,23.5-30.4c-1.8,2.1-3.5,3.8-5.7,5.6c10.1-7.8,20.2-15.6,30.4-23.5
			c-1.5,1-3,1.9-4.7,2.6c11.9-5,23.9-10.1,35.8-15.1c-2,0.8-4,1.3-6.2,1.6c13.3-1.8,26.6-3.6,39.9-5.4c-2.4,0.3-4.8,0.2-7.1-0.2
			c13.3,1.8,26.6,3.6,39.9,5.4c-3.7-0.8-7-1.8-10.5-3.2c11.9,5,23.9,10.1,35.8,15.1c-12.9-6.1-24.7-14.3-36-23
			c10.1,7.8,20.2,15.6,30.4,23.5c-19.1-15-36.1-32.2-51-51.4c7.8,10.1,15.6,20.2,23.5,30.4c-15.3-20.3-27.9-42.2-37.8-65.6
			c5,11.9,10.1,23.9,15.1,35.8c-9.6-23.5-16.3-47.9-19.7-73c1.8,13.3,3.6,26.6,5.4,39.9c-2.9-23.1-3-46.2-0.1-69.3
			c-1.8,13.3-3.6,26.6-5.4,39.9c2.6-18.4,7.1-36.2,14.3-53.3c-5,11.9-10.1,23.9-15.1,35.8c4.8-10.8,10.6-20.9,17.7-30.4
			c-7.8,10.1-15.6,20.2-23.5,30.4c6-7.5,12.6-14.3,20.1-20.3c-10.1,7.8-20.2,15.6-30.4,23.5c7.1-5.3,14.6-9.7,22.6-13.3
			c-11.9,5-23.9,10.1-35.8,15.1c10.2-4.2,20.7-6.9,31.7-8.5c-13.3,1.8-26.6,3.6-39.9,5.4c12.3-1.4,24.4-1.2,36.6,0.4
			c-13.3-1.8-26.6-3.6-39.9-5.4c12.3,1.9,24,5.1,35.6,9.7c-11.9-5-23.9-10.1-35.8-15.1c14.6,6.2,28,14.4,40.6,24.1
			c-10.1-7.8-20.2-15.6-30.4-23.5c15.2,12.1,28.5,26,40.5,41.3c-7.8-10.1-15.6-20.2-23.5-30.4c20.3,26.4,36.5,55.6,49.5,86.1
			c-5-11.9-10.1-23.9-15.1-35.8c14.6,35.1,24.4,71.8,29.6,109.5c-1.8-13.3-3.6-26.6-5.4-39.9c4.8,37.7,4.8,75.7-0.2,113.4
			c1.8-13.3,3.6-26.6,5.4-39.9c-2.1,14.6-4.6,28.8-10.1,42.5c5-11.9,10.1-23.9,15.1-35.8c-3,6.9-6.5,13.3-11.1,19.3
			c7.8-10.1,15.6-20.2,23.5-30.4c-2.8,3.4-5.7,6.3-9.1,9.1c10.1-7.8,20.2-15.6,30.4-23.5c-2.7,1.9-5.5,3.5-8.5,4.8
			c11.9-5,23.9-10.1,35.8-15.1c-2.4,0.8-4.6,1.4-7.1,1.8c13.3-1.8,26.6-3.6,39.9-5.4c-2.7,0.2-5.1,0.2-7.7,0
			c13.3,1.8,26.6,3.6,39.9,5.4c-3.4-0.6-6.2-1.3-9.4-2.5c11.9,5,23.9,10.1,35.8,15.1c-4-1.9-7.6-4.2-11.2-6.9
			c10.1,7.8,20.2,15.6,30.4,23.5c-8.7-7.4-15.8-16.2-22.9-25.2c7.8,10.1,15.6,20.2,23.5,30.4c-19.8-25.8-35.9-53.8-48.6-83.7
			c5,11.9,10.1,23.9,15.1,35.8c-12.8-31.1-21.5-63.5-26.1-96.9c1.8,13.3,3.6,26.6,5.4,39.9c-4.1-32.2-4.2-64.6,0-96.8
			c-1.8,13.3-3.6,26.6-5.4,39.9c0.2-1.1,0.3-2.3,0.5-3.4c-98.2-13.3-196.4-26.6-294.6-39.9c0.1,32.7-2,65.3-6.3,97.7
			c1.8-13.3,3.6-26.6,5.4-39.9c-8.5,62.3-25,123.1-49.1,181.1c5-11.9,10.1-23.9,15.1-35.8c-10.9,25.8-22.5,51.8-39.5,74.2
			c7.8-10.1,15.6-20.2,23.5-30.4c-6.1,7.7-12.7,14.6-20.3,20.8c10.1-7.8,20.2-15.6,30.4-23.5c-6.2,4.6-12.5,8.5-19.5,11.7
			c11.9-5,23.9-10.1,35.8-15.1c-7.1,2.9-14.3,5-21.9,6.2c13.3-1.8,26.6-3.6,39.9-5.4c-8.5,1.1-16.8,1-25.3,0
			c13.3,1.8,26.6,3.6,39.9,5.4c-10.9-1.6-21.2-4.7-31.4-8.8c11.9,5,23.9,10.1,35.8,15.1c-16.1-7-30.8-16.2-44.8-26.8
			c10.1,7.8,20.2,15.6,30.4,23.5c-33.5-26.1-61.1-59.1-86.9-92.5c7.8,10.1,15.6,20.2,23.5,30.4c-24.8-32.5-46.8-67-63-104.6
			c5,11.9,10.1,23.9,15.1,35.8c-10.7-25.6-18.3-52-22.1-79.5c1.8,13.3,3.6,26.6,5.4,39.9c-2.8-22.3-3.1-44.7-0.5-67.1
			c-1.8,13.3-3.6,26.6-5.4,39.9c2.7-19.7,7.6-38.9,15.3-57.3c-5,11.9-10.1,23.9-15.1,35.8c6.2-14.3,13.9-27.7,23.4-40.1
			c-7.8,10.1-15.6,20.2-23.5,30.4c9-11.3,19.2-21.4,30.6-30.4c-10.1,7.8-20.2,15.6-30.4,23.5c12.4-9.4,25.6-17.1,39.8-23.2
			c-11.9,5-23.9,10.1-35.8,15.1c13.2-5.4,26.8-9.1,41-11c-13.3,1.8-26.6,3.6-39.9,5.4c12-1.4,24-1.4,36,0.2
			c-13.3-1.8-26.6-3.6-39.9-5.4c11,1.7,21.6,4.6,31.9,8.8c-11.9-5-23.9-10.1-35.8-15.1c11.6,5,22.4,11.3,32.5,18.9
			c-10.1-7.8-20.2-15.6-30.4-23.5c12.2,9.6,22.9,20.7,32.5,33c-7.8-10.1-15.6-20.2-23.5-30.4c14.7,19.4,26.1,40.8,35.7,63.1
			c-5-11.9-10.1-23.9-15.1-35.8c14,33.2,26.5,69.3,31.3,105.1c-1.8-13.3-3.6-26.6-5.4-39.9c0.8,8,1,15.8,0.3,23.9
			c1.8-13.3,3.6-26.6,5.4-39.9c-0.9,6.5-2.4,12.6-4.9,18.8c5-11.9,10.1-23.9,15.1-35.8c-2.2,4.8-4.6,9.1-7.7,13.4
			c7.8-10.1,15.6-20.2,23.5-30.4c-3.2,4-6.6,7.5-10.7,10.6c10.1-7.8,20.2-15.6,30.4-23.5c-2.5,1.7-5,3.1-7.7,4.5
			c11.9-5,23.9-10.1,35.8-15.1c-4.1,1.7-8,2.7-12.4,3.3c13.3-1.8,26.6-3.6,39.9-5.4c-4,0.2-7.6,0.1-11.5-0.3
			c13.3,1.8,26.6,3.6,39.9,5.4c-7.9-1.3-15.2-3.8-22.5-6.8c11.9,5,23.9,10.1,35.8,15.1c-34.5-15.2-66.9-35.2-96.9-58.1
			c10.1,7.8,20.2,15.6,30.4,23.5c-33.4-25.9-63.3-55.7-89.3-89c7.8,10.1,15.6,20.2,23.5,30.4c-13.9-18.1-27.2-36.9-36.5-57.8
			c5,11.9,10.1,23.9,15.1,35.8c-3.7-9-6.4-18-7.9-27.6c1.8,13.3,3.6,26.6,5.4,39.9c-0.6-6-0.7-11.8-0.2-17.9
			c-1.8,13.3-3.6,26.6-5.4,39.9c0.7-5.1,1.9-9.8,3.8-14.6c-5,11.9-10.1,23.9-15.1,35.8c2.1-4.7,4.5-9.1,7.5-13.3
			c-7.8,10.1-15.6,20.2-23.5,30.4c3.2-4,6.5-7.6,10.4-10.9c-10.1,7.8-20.2,15.6-30.4,23.5c4-3,8-5.4,12.6-7.4
			c-11.9,5-23.9,10.1-35.8,15.1c3.6-1.3,7.2-2.2,11-2.8c-13.3,1.8-26.6,3.6-39.9,5.4c2.9-0.2,5.6-0.1,8.6,0.2
			c-13.3-1.8-26.6-3.6-39.9-5.4c3,0.5,5.7,1.3,8.6,2.3c-11.9-5-23.9-10.1-35.8-15.1c3.7,1.6,6.9,3.5,10.1,5.8
			c-10.1-7.8-20.2-15.6-30.4-23.5c3.9,3.2,7.2,6.6,10.3,10.6c-7.8-10.1-15.6-20.2-23.5-30.4c6.1,8.4,10.7,17.6,14.8,27.1
			c-5-11.9-10.1-23.9-15.1-35.8c17.1,41.4,31.5,84.6,37.6,129.1c-1.8-13.3-3.6-26.6-5.4-39.9c2.6,20.6,3.2,41.2,0.8,61.8
			c1.8-13.3,3.6-26.6,5.4-39.9c-2.1,15.7-6,30.7-12.1,45.4c5-11.9,10.1-23.9,15.1-35.8c-5.2,11.7-11.5,22.5-19.1,32.7
			c7.8-10.1,15.6-20.2,23.5-30.4c-11.5,14.8-25.1,27.5-39.8,39c10.1-7.8,20.2-15.6,30.4-23.5c-34.3,26.2-72.8,48.5-112.5,65.4
			c11.9-5,23.9-10.1,35.8-15.1c-25,10.3-50.7,18.2-77.5,22.1c13.3-1.8,26.6-3.6,39.9-5.4c-25.3,3.4-50.7,3.2-75.9-0.1
			c13.3,1.8,26.6,3.6,39.9,5.4c-25.3-3.6-49.8-10.4-73.4-20.1c11.9,5,23.9,10.1,35.8,15.1c-23.5-10-45.5-22.7-65.8-38.1
			c10.1,7.8,20.2,15.6,30.4,23.5c-18.4-14.4-35-30.7-49.4-49.1c7.8,10.1,15.6,20.2,23.5,30.4c-14-18.4-25.5-38.3-34.6-59.5
			c5,11.9,10.1,23.9,15.1,35.8c-9.7-23.5-16.3-48-19.9-73.2c1.8,13.3,3.6,26.6,5.4,39.9c-3.4-26.4-3.5-52.8-0.1-79.2
			c-1.8,13.3-3.6,26.6-5.4,39.9c3.5-25.2,10.1-49.6,19.9-73.1c-5,11.9-10.1,23.9-15.1,35.8c6.5-15,13.9-30.1,23.9-43.1
			c-7.8,10.1-15.6,20.2-23.5,30.4c2.8-3.3,5.8-6.3,9.2-9c-10.1,7.8-20.2,15.6-30.4,23.5c2.6-1.8,5.2-3.3,8.1-4.6
			c-11.9,5-23.9,10.1-35.8,15.1c2.6-1,5.1-1.7,7.9-2.3c-13.3,1.8-26.6,3.6-39.9,5.4c3.5-0.4,6.8-0.5,10.3-0.1
			c-13.3-1.8-26.6-3.6-39.9-5.4c3.5,0.6,6.7,1.6,9.9,2.8c-11.9-5-23.9-10.1-35.8-15.1c4.2,2,8,4.3,11.8,7.1
			c-10.1-7.8-20.2-15.6-30.4-23.5c5.5,4.5,10.3,9.4,14.8,14.9c-7.8-10.1-15.6-20.2-23.5-30.4c7.1,9.3,12.9,19.3,17.6,30
			c-5-11.9-10.1-23.9-15.1-35.8c15.9,38.6,23.6,82.1,29.1,123.3c-1.8-13.3-3.6-26.6-5.4-39.9c7.4,57.7,7.3,116-0.3,173.6
			c1.8-13.3,3.6-26.6,5.4-39.9c-3.7,26.9-7.4,56-17.1,81.4c5-11.9,10.1-23.9,15.1-35.8c-1.2,2.8-2.5,5.3-4.2,7.9
			c7.8-10.1,15.6-20.2,23.5-30.4c-1.8,2.4-3.5,4.1-5.9,6c10.1-7.8,20.2-15.6,30.4-23.5c-0.8,0.5-1.6,0.9-2.4,1.4
			c11.9-5,23.9-10.1,35.8-15.1c-1.8,0.9-3.7,1.5-5.7,1.7c13.3-1.8,26.6-3.6,39.9-5.4c-2,0.3-4,0.2-5.9-0.2
			c13.3,1.8,26.6,3.6,39.9,5.4c-2-0.4-3.9-1-5.7-1.9c11.9,5,23.9,10.1,35.8,15.1c-1.9-0.9-3.7-2-5.4-3.2
			c10.1,7.8,20.2,15.6,30.4,23.5c-4.4-3.5-8.2-7.3-11.8-11.6c7.8,10.1,15.6,20.2,23.5,30.4c-17.4-22.6-31.5-47.7-42.9-73.9
			c5,11.9,10.1,23.9,15.1,35.8c-12.9-30.7-21.7-62.8-26.3-95.8c1.8,13.3,3.6,26.6,5.4,39.9c-4.3-33-4.3-66.3,0.1-99.3
			c-1.8,13.3-3.6,26.6-5.4,39.9c3.5-24.6,9-49.3,18.4-72.4c-5,11.9-10.1,23.9-15.1,35.8c2.6-6,5.6-11.5,9.6-16.7
			c-7.8,10.1-15.6,20.2-23.5,30.4c2.1-2.5,4.3-4.6,6.7-6.8c-10.1,7.8-20.2,15.6-30.4,23.5c3.2-2.4,6.4-4.4,10.1-6.1
			c-11.9,5-23.9,10.1-35.8,15.1c3.6-1.4,7-2.3,10.8-2.9c-13.3,1.8-26.6,3.6-39.9,5.4c4.8-0.5,9.3-0.4,14.1,0.3
			c-13.3-1.8-26.6-3.6-39.9-5.4c6,1.1,11.6,2.8,17.3,5.1c-11.9-5-23.9-10.1-35.8-15.1c8.9,4,17.2,9,25,14.9
			c-10.1-7.8-20.2-15.6-30.4-23.5c20,15.5,36,35.4,51.4,55.3c-7.8-10.1-15.6-20.2-23.5-30.4c19.6,25.7,36.8,53.1,49.7,82.8
			c-5-11.9-10.1-23.9-15.1-35.8c8.7,20.8,15.1,42.3,18.4,64.6c-1.8-13.3-3.6-26.6-5.4-39.9c2.4,18.2,2.5,36.2,0.1,54.4
			c1.8-13.3,3.6-26.6,5.4-39.9c-2.5,16.7-6.9,32.9-13.4,48.5c5-11.9,10.1-23.9,15.1-35.8c-5.8,13.5-13.1,26.1-21.9,37.8
			c7.8-10.1,15.6-20.2,23.5-30.4c-7.8,9.8-16.4,18.6-26.3,26.3c10.1-7.8,20.2-15.6,30.4-23.5c-8.5,6.4-17.6,11.7-27.3,16.1
			c11.9-5,23.9-10.1,35.8-15.1c-9.1,3.8-18.4,6.3-28.1,7.7c13.3-1.8,26.6-3.6,39.9-5.4c-9.7,1.1-19.3,1-29-0.1
			c13.3,1.8,26.6,3.6,39.9,5.4c-11.5-1.6-22.5-4.5-33.2-8.8c11.9,5,23.9,10.1,35.8,15.1c-10.5-4.5-20.3-10.1-29.5-17.1
			c10.1,7.8,20.2,15.6,30.4,23.5c-7.4-5.9-14-12.5-19.8-19.9c7.8,10.1,15.6,20.2,23.5,30.4c-4.5-6.1-8.4-12.5-11.5-19.4
			c5,11.9,10.1,23.9,15.1,35.8c-2.9-7.1-5-14.2-6.2-21.8c1.8,13.3,3.6,26.6,5.4,39.9c-1-8-0.9-15.9,0-24
			c-1.8,13.3-3.6,26.6-5.4,39.9c1.6-11,4.7-21.4,8.8-31.7c-5,11.9-10.1,23.9-15.1,35.8c11.9-28.1,29.6-53.6,46-79.2
			c16.7-25.8,33.9-51.2,52.7-75.6c-7.8,10.1-15.6,20.2-23.5,30.4c25.8-33.2,54.5-64.3,87.8-90.1c-10.1,7.8-20.2,15.6-30.4,23.5
			c23-17.5,47.8-32.2,74.4-43.5c-11.9,5-23.9,10.1-35.8,15.1c20.9-8.6,42.5-14.8,64.9-18.1c-13.3,1.8-26.6,3.6-39.9,5.4
			c16.5-2.2,33-2.7,49.6-1.5c0-100,0-200,0-300c-19.9,0.6-39.8,0.3-59.6-2.3c13.3,1.8,26.6,3.6,39.9,5.4c-13.4-1.9-26.5-5-39.2-10.1
			c11.9,5,23.9,10.1,35.8,15.1c-7.6-3.3-14.7-7.3-21.4-12.2c10.1,7.8,20.2,15.6,30.4,23.5c-5.1-4-9.5-8.4-13.6-13.4
			c7.8,10.1,15.6,20.2,23.5,30.4c-4.6-6-8.1-12.3-11.1-19.2c5,11.9,10.1,23.9,15.1,35.8c-3.9-10.4-6.2-21-7.8-32
			c1.8,13.3,3.6,26.6,5.4,39.9c-11.1-83.8-9.8-169.6,1.2-253.3c-1.8,13.3-3.6,26.6-5.4,39.9c2.3-17,3.5-35.6,9.3-51.9
			c-5,11.9-10.1,23.9-15.1,35.8c1.3-2.8,2.6-5.1,4.4-7.6c-7.8,10.1-15.6,20.2-23.5,30.4c1.3-1.6,2.8-3,4.5-4.2
			c-10.1,7.8-20.2,15.6-30.4,23.5c1.8-1.2,3.6-2.2,5.7-2.9c-11.9,5-23.9,10.1-35.8,15.1c3.2-1,6.2-1.7,9.5-2.2
			c-13.3,1.8-26.6,3.6-39.9,5.4c21.4-2,43.6,0,64.8,2.8c-13.3-1.8-26.6-3.6-39.9-5.4c32.6,4.5,64.3,13,94.7,25.5
			c-22.1-83.6-44.1-167.1-66.2-250.7c-88,69.4-175.4,139.5-264,208.1c10.1-7.8,20.2-15.6,30.4-23.5c-11.7,8.9-23.8,17.1-37.3,23
			c11.9-5,23.9-10.1,35.8-15.1c-6.6,2.6-13.2,4.4-20.2,5.6c13.3-1.8,26.6-3.6,39.9-5.4c-7.3,0.9-14.3,0.9-21.6,0.1
			c13.3,1.8,26.6,3.6,39.9,5.4c-8.2-1.2-15.9-3.4-23.6-6.5c11.9,5,23.9,10.1,35.8,15.1c-9.8-4.3-18.8-9.7-27.3-16.2
			c10.1,7.8,20.2,15.6,30.4,23.5c-13.3-10.4-24.7-22.5-35-35.8c7.8,10.1,15.6,20.2,23.5,30.4c-16.3-21.7-28.7-45.8-39.3-70.8
			c5,11.9,10.1,23.9,15.1,35.8c-15-36.2-25.1-74-30.6-112.8c1.8,13.3,3.6,26.6,5.4,39.9c-5.8-43.1-5.8-86.7-0.2-129.8
			c-1.8,13.3-3.6,26.6-5.4,39.9c5.9-43.1,17.2-85.1,34.1-125.2c-5,11.9-10.1,23.9-15.1,35.8c15-35,34.1-68,57.3-98.2
			c-7.8,10.1-15.6,20.2-23.5,30.4c17.1-21.9,35.9-42.6,57.9-59.6c-10.1,7.8-20.2,15.6-30.4,23.5c10.9-8.2,22.4-15.3,34.8-20.9
			c-11.9,5-23.9,10.1-35.8,15.1c10.6-4.4,21.3-7.5,32.7-9.2c-13.3,1.8-26.6,3.6-39.9,5.4c11-1.3,21.9-1.2,33,0.1
			c-13.3-1.8-26.6-3.6-39.9-5.4c14.8,2.2,28.9,6.3,42.8,11.9c-11.9-5-23.9-10.1-35.8-15.1c29,12.2,55.2,29.7,80,48.9
			c-10.1-7.8-20.2-15.6-30.4-23.5c37.1,29,70.2,62.7,99.1,99.9c-7.8-10.1-15.6-20.2-23.5-30.4c33.7,43.8,61.2,91.8,82.8,142.7
			c-5-11.9-10.1-23.9-15.1-35.8c24.5,58.6,40.3,120.1,48.8,183c-1.8-13.3-3.6-26.6-5.4-39.9c10.2,78.6,8.8,158-1.5,236.5
			c1.8-13.3,3.6-26.6,5.4-39.9c-4.2,31.3-7.2,65.6-19.4,95c5-11.9,10.1-23.9,15.1-35.8c-2.3,5.1-5,9.8-8.4,14.3
			c7.8-10.1,15.6-20.2,23.5-30.4c-2.3,2.7-4.8,5.1-7.6,7.4c10.1-7.8,20.2-15.6,30.4-23.5c-2.3,1.5-4.5,2.8-7,3.9
			c11.9-5,23.9-10.1,35.8-15.1c-3.2,1.2-6.2,1.9-9.7,2.5c13.3-1.8,26.6-3.6,39.9-5.4c-3.7,0.2-7.1,0.2-10.9-0.1
			c13.3,1.8,26.6,3.6,39.9,5.4c-14.8-2.2-29-7.7-42.7-13.5c11.9,5,23.9,10.1,35.8,15.1c-24.3-10.6-46.8-24.2-67.9-40.2
			c10.1,7.8,20.2,15.6,30.4,23.5c-26.3-20.5-49.6-44.4-70-70.7c7.8,10.1,15.6,20.2,23.5,30.4c-23-30.1-42.4-62.8-57.3-97.7
			c5,11.9,10.1,23.9,15.1,35.8c-11.2-26.8-19.4-54.6-23.5-83.4c1.8,13.3,3.6,26.6,5.4,39.9c-2.8-21.5-3.2-43.1-0.6-64.6
			c-1.8,13.3-3.6,26.6-5.4,39.9c2.7-19.6,7.7-38.6,15.2-56.9c-5,11.9-10.1,23.9-15.1,35.8c6.8-16,15.4-31,26-44.9
			c-7.8,10.1-15.6,20.2-23.5,30.4c8.7-11,18.4-21,29.4-29.8c-10.1,7.8-20.2,15.6-30.4,23.5c11.7-9,24.2-16.3,37.8-22.2
			c-11.9,5-23.9,10.1-35.8,15.1c15.9-6.6,32.4-10.9,49.4-13.4c-13.3,1.8-26.6,3.6-39.9,5.4c26.9-3.5,53.8-2.6,80.6,0.9
			c-13.3-1.8-26.6-3.6-39.9-5.4c70.4,9.8,139.3,34.2,204.5,61.6c-11.9-5-23.9-10.1-35.8-15.1c48.2,20.4,96.3,43,138,75
			c-10.1-7.8-20.2-15.6-30.4-23.5c16.5,12.9,31.7,27.2,44.6,43.7c-7.8-10.1-15.6-20.2-23.5-30.4c8.6,11.3,15.9,23.3,21.6,36.2
			c-5-11.9-10.1-23.9-15.1-35.8c5.1,12.3,8.6,24.9,10.4,38.1c-1.8-13.3-3.6-26.6-5.4-39.9c1.3,11.3,1.2,22.4-0.2,33.7
			c1.8-13.3,3.6-26.6,5.4-39.9c-1.9,13.1-5.6,25.7-10.7,37.9c5-11.9,10.1-23.9,15.1-35.8c-5.9,13.3-13.3,25.5-22.1,37.1
			c7.8-10.1,15.6-20.2,23.5-30.4c-10.5,13.3-22.4,25-35.7,35.5c10.1-7.8,20.2-15.6,30.4-23.5c-13.5,10.2-27.9,18.8-43.4,25.6
			c11.9-5,23.9-10.1,35.8-15.1c-20.6,8.7-42.3,14.1-64.4,17.3c13.3-1.8,26.6-3.6,39.9-5.4c-34.6,4.5-69.4,3.3-104-1.2
			c13.3,1.8,26.6,3.6,39.9,5.4c-50-6.9-100.1-18.5-146.8-37.9c11.9,5,23.9,10.1,35.8,15.1c-24.1-10.3-47.2-22.8-68-38.8
			c10.1,7.8,20.2,15.6,30.4,23.5c-12.9-10.2-24.7-21.6-34.8-34.7c7.8,10.1,15.6,20.2,23.5,30.4c-8.1-10.8-14.9-22.4-20.2-34.8
			c5,11.9,10.1,23.9,15.1,35.8c-5.3-13-8.7-26.4-10.6-40.3c1.8,13.3,3.6,26.6,5.4,39.9c-2-18.1-1.4-36.1,0.9-54.2
			c-1.8,13.3-3.6,26.6-5.4,39.9c4.8-32.6,14.7-64.3,27.5-94.7c-5,11.9-10.1,23.9-15.1,35.8c14.8-34.3,33.7-66.4,56.6-96
			c-7.8,10.1-15.6,20.2-23.5,30.4c13.6-17.3,28.3-33.7,45.6-47.4c-10.1,7.8-20.2,15.6-30.4,23.5c9.9-7.6,20.4-14,31.9-19
			c-11.9,5-23.9,10.1-35.8,15.1c9.8-3.9,19.8-6.6,30.2-8.1c-13.3,1.8-26.6,3.6-39.9,5.4c11.7-1.3,23.3-1.1,35,0.3
			c-13.3-1.8-26.6-3.6-39.9-5.4c16.7,2.4,32.6,7.2,48.1,13.8c-11.9-5-23.9-10.1-35.8-15.1c21.3,9.3,40.9,21.6,59.2,35.7
			c-10.1-7.8-20.2-15.6-30.4-23.5c21.6,17,40.9,36.5,57.9,58.2c-7.8-10.1-15.6-20.2-23.5-30.4c17.4,22.8,31.8,47.4,43,73.8
			c-5-11.9-10.1-23.9-15.1-35.8c10.7,26,18.1,52.9,22,80.8c-1.8-13.3-3.6-26.6-5.4-39.9c3.6,28.4,3.5,56.9-0.1,85.3
			c1.8-13.3,3.6-26.6,5.4-39.9c-4.1,29.5-11.9,58.2-23.4,85.7c5-11.9,10.1-23.9,15.1-35.8c-10.3,23.9-23.1,46.4-38.8,67.2
			c7.8-10.1,15.6-20.2,23.5-30.4c-9.8,12.6-20.6,24.2-33.2,34.1c10.1-7.8,20.2-15.6,30.4-23.5c-8.2,6.1-16.8,11.3-26.2,15.5
			c11.9-5,23.9-10.1,35.8-15.1c-10.4,4.3-21.1,7.2-32.3,8.7c13.3-1.8,26.6-3.6,39.9-5.4c-12.3,1.3-24.3,1-36.6-0.6
			c13.3,1.8,26.6,3.6,39.9,5.4c-17.2-2.7-33.7-7.7-49.7-14.4c11.9,5,23.9,10.1,35.8,15.1c-26.2-11.3-50.3-26.5-73-43.7
			c10.1,7.8,20.2,15.6,30.4,23.5c-50.8-39.2-95.9-85-135.3-135.6c7.8,10.1,15.6,20.2,23.5,30.4c-46.4-60.1-84.3-126.1-114-195.9
			c5,11.9,10.1,23.9,15.1,35.8c-29.8-70.8-52.5-145.5-62.8-221.7c1.8,13.3,3.6,26.6,5.4,39.9c-5.5-43-6.6-86.3-1-129.3
			c-1.8,13.3-3.6,26.6-5.4,39.9c3.9-28,10.3-55.9,21.2-82c-5,11.9-10.1,23.9-15.1,35.8c5.1-11.7,11.2-22.8,19-33
			c-7.8,10.1-15.6,20.2-23.5,30.4c5.2-6.5,10.9-12.2,17.4-17.4c-10.1,7.8-20.2,15.6-30.4,23.5c5-3.7,10.2-6.7,15.9-9.3
			c-11.9,5-23.9,10.1-35.8,15.1c7-2.8,13.9-4.6,21.4-5.7c-13.3,1.8-26.6,3.6-39.9,5.4c10.3-1,20.4-0.6,30.6,0.7
			c-13.3-1.8-26.6-3.6-39.9-5.4c38.4,6,76.3,19.9,112.1,34.8c-11.9-5-23.9-10.1-35.8-15.1c54.2,22.9,105.2,52.7,151.8,88.7
			c-10.1-7.8-20.2-15.6-30.4-23.5c41.9,32.7,80.3,70.1,113.2,111.9c-7.8-10.1-15.6-20.2-23.5-30.4c9.6,12.5,18.3,25.4,24.7,39.8
			c-5-11.9-10.1-23.9-15.1-35.8c3.6,8.8,6.2,17.7,7.5,27.2c-1.8-13.3-3.6-26.6-5.4-39.9c0.9,8.9,0.8,17.6-0.4,26.5
			c1.8-13.3,3.6-26.6,5.4-39.9c-1.6,9.9-4.5,19.4-8.3,28.7c5-11.9,10.1-23.9,15.1-35.8c-6.1,13.8-14,26.4-23.1,38.3
			c7.8-10.1,15.6-20.2,23.5-30.4c-14.6,18.4-31.7,34.2-50.2,48.7c10.1-7.8,20.2-15.6,30.4-23.5c-33.7,26-70.4,47.4-109.5,64.1
			c11.9-5,23.9-10.1,35.8-15.1c-42.4,17.8-86.9,29.9-132.4,36.1c13.3-1.8,26.6-3.6,39.9-5.4c-44.4,5.7-89.3,5.8-133.7-0.1
			c13.3,1.8,26.6,3.6,39.9,5.4c-27.2-3.9-55-9.1-80.6-19.4c11.9,5,23.9,10.1,35.8,15.1c-9.6-4.1-18.5-9.1-26.8-15.4
			c10.1,7.8,20.2,15.6,30.4,23.5c-5.3-4.5-10-9.3-14.4-14.7c7.8,10.1,15.6,20.2,23.5,30.4c-6.2-8.3-11.1-17.3-15.2-26.8
			c5,11.9,10.1,23.9,15.1,35.8c-13-31.5-20.3-65.7-27.7-98.8c-7.8-34.9-14-70.2-18.8-105.6c1.8,13.3,3.6,26.6,5.4,39.9
			C220.8,707.8,221,592.6,236.2,479c-1.8,13.3-3.6,26.6-5.4,39.9c6.1-44.5,14.4-88.6,25.1-132.2c10.5-42.6,22.1-86,38.5-126.7
			c-5,11.9-10.1,23.9-15.1,35.8c1.2-2.6,2.5-5,4-7.4c-7.8,10.1-15.6,20.2-23.5,30.4c1-1.5,2.3-2.8,3.6-3.9
			c-10.1,7.8-20.2,15.6-30.4,23.5c1.4-1.1,2.9-2,4.6-2.6c-11.9,5-23.9,10.1-35.8,15.1c1.1-0.2,2.1-0.5,3.2-0.7
			c-13.3,1.8-26.6,3.6-39.9,5.4c1.1,0,2.1,0,3.2,0c-13.3-1.8-26.6-3.6-39.9-5.4c2.2,0.2,4.2,0.8,6.2,1.7
			c-11.9-5-23.9-10.1-35.8-15.1c3.2,1.6,5.9,3.3,8.8,5.5c-10.1-7.8-20.2-15.6-30.4-23.5c20.2,17.1,37.7,38.2,53.9,59
			c-7.8-10.1-15.6-20.2-23.5-30.4c27.7,36,50.6,75.2,68.4,116.9c-5-11.9-10.1-23.9-15.1-35.8c18,42.9,30.4,87.8,36.8,133.9
			c-1.8-13.3-3.6-26.6-5.4-39.9c1.5,11.5,2.7,23.1,3.4,34.6c50-50,100-100,150-150c-12.7,0.1-25.3-0.7-37.9-2.3
			c13.3,1.8,26.6,3.6,39.9,5.4c-23.8-3.4-46.8-9.9-69-19c11.9,5,23.9,10.1,35.8,15.1c-27.3-11.6-52.6-26.8-76.1-44.8
			c10.1,7.8,20.2,15.6,30.4,23.5c-30-23.3-56.4-50.6-79.6-80.6c7.8,10.1,15.6,20.2,23.5,30.4c-25.6-33.5-47.2-70-63.7-108.9
			c5,11.9,10.1,23.9,15.1,35.8c-11.9-28.7-20.9-58.5-25.2-89.3c1.8,13.3,3.6,26.6,5.4,39.9c-2.6-20.7-3.1-41.5-0.4-62.2
			c-1.8,13.3-3.6,26.6-5.4,39.9c2.3-15.9,6.3-31.2,12.4-46c-5,11.9-10.1,23.9-15.1,35.8c4.5-10.2,9.5-20,16.3-28.9
			c-7.8,10.1-15.6,20.2-23.5,30.4c4.8-5.8,9.9-10.9,15.8-15.6c-10.1,7.8-20.2,15.6-30.4,23.5c4.2-3,8.5-5.6,13.1-7.9
			c-11.9,5-23.9,10.1-35.8,15.1c4.5-1.9,9-3.2,13.8-3.9c-13.3,1.8-26.6,3.6-39.9,5.4c2.9-0.2,5.5-0.2,8.3,0
			c-13.3-1.8-26.6-3.6-39.9-5.4c2.9,0.5,5.4,1.1,8.2,2.1c-11.9-5-23.9-10.1-35.8-15.1c2.9,1.3,5.3,2.7,7.9,4.4
			C4.3,175.8-5.8,168-16,160.2c2.5,2.1,4.6,4.1,6.8,6.5c-7.8-10.1-15.6-20.2-23.5-30.4c3.3,4.3,5.9,8.8,8.2,13.7
			c-5-11.9-10.1-23.9-15.1-35.8c5.1,12.1,8.2,24.8,10.1,37.8c-1.8-13.3-3.6-26.6-5.4-39.9c1.8,14.8,1.7,29.4-0.2,44.2
			c1.8-13.3,3.6-26.6,5.4-39.9c-2.1,13.5-5.6,26.4-10.8,39c5-11.9,10.1-23.9,15.1-35.8c-1,2.3-2,4.5-3,6.7
			c56.5-23,112.9-46,169.4-68.9c-5.9-1-11.4-2.5-16.9-4.7c11.9,5,23.9,10.1,35.8,15.1c-6.3-2.7-12-6.1-17.5-10.1
			c10.1,7.8,20.2,15.6,30.4,23.5c-7-5.5-13.1-11.8-18.6-18.8c7.8,10.1,15.6,20.2,23.5,30.4c-5.4-7.4-9.8-15.2-13.5-23.5
			c5,11.9,10.1,23.9,15.1,35.8c-4.3-10.4-7.2-20.9-8.7-32c1.8,13.3,3.6,26.6,5.4,39.9c-1.4-13-1.1-25.8,0.5-38.7
			c-1.8,13.3-3.6,26.6-5.4,39.9c4.4-31.7,15.8-61.7,28.2-91.1c-5,11.9-10.1,23.9-15.1,35.8c5.3-12.3,11.3-24.2,19.4-34.9
			C195.7,34,187.8,44.1,180,54.2c3.8-4.6,7.8-8.7,12.5-12.4c-10.1,7.8-20.2,15.6-30.4,23.5c3.2-2.2,6.4-4.1,9.9-5.8
			c-11.9,5-23.9,10.1-35.8,15.1c3.9-1.5,7.7-2.5,11.8-3.3c-13.3,1.8-26.6,3.6-39.9,5.4c4.6-0.4,9-0.3,13.6,0.2
			c-13.3-1.8-26.6-3.6-39.9-5.4c4.6,0.9,8.9,2.1,13.2,3.7c-11.9-5-23.9-10.1-35.8-15.1c7.3,3.1,13.8,7,20.1,11.9
			C69.2,64.2,59.1,56.4,49,48.6c6.2,5.1,11.7,10.7,16.7,16.9C57.9,55.4,50,45.3,42.2,35.2c6,8,10.9,16.5,15,25.6
			c-5-11.9-10.1-23.9-15.1-35.8c6.4,15.3,10.3,31.2,12.6,47.6c-1.8-13.3-3.6-26.6-5.4-39.9c4,31.5,2.1,63.2-1.9,94.6
			c1.8-13.3,3.6-26.6,5.4-39.9c-6.3,47-18.8,92.7-37.1,136.4c5-11.9,10.1-23.9,15.1-35.8C18.6,216.7,4,244.1-13,270.3
			c86.3,0,172.7,0,259,0c-5.7-11.5-11.4-23-16.5-34.8c5,11.9,10.1,23.9,15.1,35.8c-6.4-15.3-11.4-30.9-13.9-47.4
			c1.8,13.3,3.6,26.6,5.4,39.9c-1.1-9.1-1.4-17.9-0.4-27c-1.8,13.3-3.6,26.6-5.4,39.9c1.3-9,3.6-17.6,7.1-26
			c-5,11.9-10.1,23.9-15.1,35.8c2.9-6.4,6.3-12.2,10.5-17.8c-7.8,10.1-15.6,20.2-23.5,30.4c3.7-4.5,7.6-8.6,12.1-12.3
			c-10.1,7.8-20.2,15.6-30.4,23.5c3.9-2.9,7.8-5.3,12.2-7.3c-11.9,5-23.9,10.1-35.8,15.1c4.9-2,9.7-3.4,14.9-4.3
			c-13.3,1.8-26.6,3.6-39.9,5.4c6.6-0.7,12.9-0.7,19.4,0.1c-13.3-1.8-26.6-3.6-39.9-5.4c17.1,2.6,33.4,8.8,49.3,15.5
			c-11.9-5-23.9-10.1-35.8-15.1c21.6,9.4,42.2,20.8,61,35c-10.1-7.8-20.2-15.6-30.4-23.5c14,10.9,26.7,23.2,37.7,37.2
			c-7.8-10.1-15.6-20.2-23.5-30.4c8,10.6,14.8,21.8,20.2,34c-5-11.9-10.1-23.9-15.1-35.8c5.6,13.3,9.4,27,11.5,41.2
			c-1.8-13.3-3.6-26.6-5.4-39.9c1.5,12,1.6,23.8,0.3,35.8c1.8-13.3,3.6-26.6,5.4-39.9c-1.5,10.7-4,21-8,31.1
			c5-11.9,10.1-23.9,15.1-35.8c-3.8,8.9-8.4,17.1-14.1,24.9c7.8-10.1,15.6-20.2,23.5-30.4c-5.2,6.6-11,12.3-17.6,17.4
			c10.1-7.8,20.2-15.6,30.4-23.5c-6.7,5-13.9,9.1-21.5,12.6c11.9-5,23.9-10.1,35.8-15.1c-9.4,4-19.1,6.7-29.3,8.1
			c13.3-1.8,26.6-3.6,39.9-5.4c-8.2,0.9-16.3,1-24.5,0.2c13.3,1.8,26.6,3.6,39.9,5.4c-8.1-1.1-15.7-3.1-23.3-6.1
			c11.9,5,23.9,10.1,35.8,15.1c-5.8-2.6-11.1-5.6-16.2-9.4c10.1,7.8,20.2,15.6,30.4,23.5c-5.4-4.3-10.2-9-14.5-14.4
			c7.8,10.1,15.6,20.2,23.5,30.4c-4.9-6.5-8.9-13.4-12.2-20.8c5,11.9,10.1,23.9,15.1,35.8c-4.3-10.6-6.9-21.4-8.5-32.7
			c1.8,13.3,3.6,26.6,5.4,39.9c-2.1-18-1.4-36.1,1-54.1c-1.8,13.3-3.6,26.6-5.4,39.9c5.3-36.7,15.9-72.6,30.1-106.7
			c-5,11.9-10.1,23.9-15.1,35.8c16-37.7,36.6-73,61.5-105.5c-7.8,10.1-15.6,20.2-23.5,30.4c23-29.6,49.3-56.3,78.7-79.6
			c-10.1,7.8-20.2,15.6-30.4,23.5c2.9-2.2,5.8-4.1,9-5.8c-11.9,5-23.9,10.1-35.8,15.1c2.1-1,4.2-1.8,6.5-2.2
			c-13.3,1.8-26.6,3.6-39.9,5.4c1.1-0.1,2.2-0.2,3.2-0.3c-13.3-1.8-26.6-3.6-39.9-5.4c1.1,0.2,2.1,0.3,3.2,0.5
			c-11.9-5-23.9-10.1-35.8-15.1c1,0.4,2,0.9,3,1.3c-10.1-7.8-20.2-15.6-30.4-23.5c1.6,1,2.9,2.3,3.9,3.8
			c-7.8-10.1-15.6-20.2-23.5-30.4c0.5,0.8,0.9,1.6,1.4,2.4c-5-11.9-10.1-23.9-15.1-35.8c1.4,3.7,2.2,7.3,2.8,11.2
			c-1.8-13.3-3.6-26.6-5.4-39.9c5.2,39.7,5.2,79.6,0,119.3c1.8-13.3,3.6-26.6,5.4-39.9c-5.5,39.6-16,78.2-31.4,115.1
			c5-11.9,10.1-23.9,15.1-35.8c-5.4,12.6-11.3,25-17.8,37.1c93.2,25.2,186.3,50.5,279.5,75.7c0.9-11.9,2.1-23.8,3.7-35.7
			c-1.8,13.3-3.6,26.6-5.4,39.9c7.5-55.8,22.5-110.3,44.2-162.3c-5,11.9-10.1,23.9-15.1,35.8c21.6-50.8,49.4-98.5,83.1-142.2
			c-7.8,10.1-15.6,20.2-23.5,30.4c12.3-15.7,24.8-33,40.7-45.3C575,44,564.9,51.8,554.8,59.6c3-2.1,5.9-3.7,9.2-5.3
			c-11.9,5-23.9,10.1-35.8,15.1c3.2-1.2,6.2-2,9.5-2.5c-13.3,1.8-26.6,3.6-39.9,5.4c4.5-0.4,8.6-0.3,13.1,0.2
			c-13.3-1.8-26.6-3.6-39.9-5.4c4.5,0.9,8.6,2.1,12.9,3.7c-11.9-5-23.9-10.1-35.8-15.1c6.4,2.8,12.1,6.1,17.7,10.2
			c-10.1-7.8-20.2-15.6-30.4-23.5c7.3,5.8,13.7,12.2,19.6,19.4c-7.8-10.1-15.6-20.2-23.5-30.4c7.4,9.6,13.2,19.8,18,30.9
			c-5-11.9-10.1-23.9-15.1-35.8c6.7,16.3,10.7,33.2,13.2,50.6c-1.8-13.3-3.6-26.6-5.4-39.9c7.5,57.2,0.4,116.7-7.1,173.6
			c1.8-13.3,3.6-26.6,5.4-39.9c-15.2,112.4-45.4,222.4-89.5,327c5-11.9,10.1-23.9,15.1-35.8c-27.6,64.9-60.5,127.5-98.4,187
			c93.2,25.2,186.3,50.5,279.5,75.7c0.4-3.8,0.9-7.7,1.4-11.5c-1.8,13.3-3.6,26.6-5.4,39.9c5.1-35.6,15.9-69.8,29.8-103
			c-5,11.9-10.1,23.9-15.1,35.8c17.6-41.1,39.4-80.2,61.5-119C642,527.9,665,489,688.7,450.5c47.4-77,97.4-152.4,150-226
			c29.7-41.6,60.2-82.6,91.4-123.1c-7.8,10.1-15.6,20.2-23.5,30.4c47.3-61.1,96.4-120.9,147.1-179.3
			c-83.6-48.6-167.1-97.3-250.7-145.9c-6.1,20.6-13.4,40.8-21.7,60.6c5-11.9,10.1-23.9,15.1-35.8C769.7-106.2,733.3-48.5,695.3,7.7
			c-39.9,59-80.4,117.6-119.5,177.2C495.8,307.1,419.5,431.9,347.2,559c-40.7,71.5-80.1,143.7-118.3,216.6
			c-18.6,35.5-25.9,76.3-15.1,115.6c9.6,34.8,36.5,72.5,68.9,89.6c34.8,18.4,77,27.6,115.6,15.1C434.4,984.2,469.7,961.7,487.9,927
			L487.9,927z"/>
	</g>
</g>
<g id="XMLID_5_">
	<g id="XMLID_27_">
		<path id="XMLID_31_" class="st1" d="M35-124.3c-70.7,37-141.4,73.9-212.1,110.9c-17.5,9.4-31.5,22.3-42.1,38.6
			c-13.3,14.5-22.2,31.5-26.8,51c-6.3,19.9-7.1,39.9-2.7,59.8c0.9,20,6.8,38.6,17.8,55.8c20.6,32,51.4,60.2,89.6,68.9
			c13.3,1.8,26.6,3.6,39.9,5.4c27.1-0.1,52.3-6.9,75.7-20.5c58.4-27.1,102.4-77.2,161.8-102.5c-11.9,5-23.9,10.1-35.8,15.1
			c14.2-5.8,28.6-10.1,43.8-12.3c-13.3,1.8-26.6,3.6-39.9,5.4c11.4-1.4,22.6-1.6,34-0.2c-13.3-1.8-26.6-3.6-39.9-5.4
			c9.1,1.4,17.7,3.7,26.3,7.2c-11.9-5-23.9-10.1-35.8-15.1c3.7,1.7,7,3.5,10.2,6c-10.1-7.8-20.2-15.6-30.4-23.5
			c1.5,1.2,2.8,2.6,3.9,4.2C64.6,114.3,56.8,104.1,49,94c0.5,0.8,0.9,1.6,1.4,2.4c-5-11.9-10.1-23.9-15.1-35.8
			c0.9,1.9,1.4,4,1.4,6.1c-1.8-13.3-3.6-26.6-5.4-39.9c-0.1,1.1-0.2,2.3-0.3,3.4c1.8-13.3,3.6-26.6,5.4-39.9C36-7.3,35.3-5.1,34.3-3
			c5-11.9,10.1-23.9,15.1-35.8c-9,17.1-22.3,32.6-34,47.9C23.2-1.1,31-11.2,38.8-21.3C-8.3,39.5-61.2,95.4-114,151.3
			c-60.8,64.4-119.2,129.9-172.9,200.4c-26.2,34.4-50.3,70.4-71,108.4c-5,11.9-10.1,23.9-15.1,35.8c-6.3,19.9-7.1,39.9-2.7,59.8
			c0,13.5,3.5,26.2,10.2,37.9c6,18.6,16.4,34.7,31,48.3c19.2,17.6,41.4,30.6,66.2,38.6c19.9,6.3,39.9,7.1,59.8,2.7
			c20-0.9,38.6-6.8,55.8-17.8c204.7-152,403.6-311.8,595-480.3C494.1,139.3,545.5,92.9,596.3,46c27.6-25.5,43.9-69.2,43.9-106.1
			c0.8-20.7-3.5-39.9-12.9-57.8c-6-18.6-16.4-34.7-31-48.3c-28.6-26.2-66.1-45.7-106.1-43.9c-13.3,1.8-26.6,3.6-39.9,5.4
			c-25.4,7.1-47.5,20-66.2,38.6C242.9-44.7,101.4,76.9-31,208c-37.6,37.2-74.3,75.1-110.2,113.9c-25.6,27.7-45.7,67.2-43.9,106.1
			c1.8,13.3,3.6,26.6,5.4,39.9c4.6,19.5,13.6,36.5,26.8,51c6.7,11.3,15.6,20.2,26.9,26.9c14.5,13.3,31.5,22.2,51,26.8
			c13.3,1.8,26.6,3.6,39.9,5.4c27.1-0.1,52.3-6.9,75.7-20.5c120.8-51.9,232.6-121.7,340.5-196.2c108.1-74.6,213-153.9,322.6-226.2
			c61.8-40.8,125.2-79.2,191.1-113.1C834.2-56.6,773.6-135.1,713-213.7C558.5-75.1,403.9,63.4,252.8,205.8
			C102,347.9-45.5,493.8-185.5,646.7c-78.7,86-154.9,174.1-228.1,264.9c-7.8,10.1-15.6,20.2-23.5,30.4c-11,17.2-16.9,35.8-17.8,55.8
			c-3.6,13.3-3.6,26.6,0,39.9c0.9,20,6.8,38.6,17.8,55.8c14,21.7,32.1,39.8,53.8,53.8c33.2,21.4,78.3,23.7,115.6,15.1
			c65.2-15,122.7-51.5,178.1-87.3c48.8-31.5,97.4-63.4,145.7-95.6c96.7-64.4,192.5-130.2,287.3-197.3
			c198-140.1,391.8-286.1,581.7-437c102.4-81.3,203.4-164.3,303.2-248.7c14.6-13.6,25-29.7,31-48.3c9.4-17.9,13.7-37.1,12.9-57.8
			c-1.8-13.3-3.6-26.6-5.4-39.9c-4.6-19.5-13.6-36.5-26.8-51c-6.7-11.3-15.6-20.2-26.9-26.9c-14.5-13.3-31.5-22.2-51-26.8
			c-39.3-8.9-80.2-5.8-115.6,15.1C891.9-47.6,738.2,45.9,589,146.4C430.9,252.8,277.3,367.1,133.7,492.6
			c-75.5,66.1-148,135.6-216.4,209c-7.8,10.1-15.6,20.2-23.5,30.4c-11,17.2-16.9,35.8-17.8,55.8c-3.6,13.3-3.6,26.6,0,39.9
			c0.9,20,6.8,38.6,17.8,55.8c14,21.7,32.1,39.8,53.8,53.8c33.2,21.4,78.3,23.6,115.6,15.1c48.6-11.1,95.2-31.4,140.1-52.5
			c35.9-16.9,70.7-36.1,105.6-54.9c70.7-38.2,141-77.2,210.7-117.1c140.1-80.1,278.2-163.7,414.2-250.6
			c76.7-49.1,152.8-99.2,228.1-150.4c-60.6-78.5-121.2-157.1-181.8-235.6c-132.7,128.8-276,245.9-420,361.7
			C416.4,568.7,271.6,683.5,135.6,808.6c-76,70-149.1,143.2-217.3,220.9c-7.8,10.1-15.6,20.2-23.5,30.4
			c-11,17.2-16.9,35.8-17.8,55.8c-3.6,13.3-3.6,26.6,0,39.9c0.9,20,6.8,38.6,17.8,55.8c14,21.7,32.1,39.8,53.8,53.8
			c17.2,11,35.8,16.9,55.8,17.8c19.9,4.5,39.9,3.6,59.8-2.7c53.6-7.8,104.7-29.5,153.2-52.9c39-18.8,75.9-41.7,112.7-64.4
			c80.3-49.7,160.1-100.3,239.4-151.6c158-102.3,314.2-207.5,469.6-313.6c87.6-59.8,175-120,262.5-180.1
			c17.5-9.4,31.5-22.3,42.1-38.6c13.3-14.5,22.2-31.5,26.8-51c6.3-19.9,7.1-39.9,2.7-59.8c-0.9-20-6.8-38.6-17.8-55.8
			c-20.6-32-51.4-60.2-89.6-68.9c-38.5-8.8-81.3-6.7-115.6,15.1c-176.4,112.2-352.7,224.5-527.6,339
			C448.9,711.2,276.6,827.2,107.5,947.5c-95.5,68-190.1,137.4-283.3,208.5c-17.5,9.4-31.5,22.3-42.1,38.6
			c-13.3,14.5-22.2,31.5-26.8,51c-6.3,19.9-7.1,39.9-2.7,59.8c0.9,20,6.8,38.6,17.8,55.8c20.6,32,51.4,60.2,89.6,68.9
			c38.8,8.8,80.9,6.4,115.6-15.1c168.8-104.6,335.9-211.9,501.3-321.9c165.4-110,328.9-222.7,490.7-337.9
			c91.3-65.1,182-131,272.2-197.7c17.5-9.4,31.5-22.3,42.1-38.6c13.3-14.5,22.2-31.5,26.8-51c6.3-19.9,7.1-39.9,2.7-59.8
			c-0.9-20-6.8-38.6-17.8-55.8c-20.6-32-51.4-60.2-89.6-68.9c-39.6-9-79.8-5.4-115.6,15.1C910.9,400.1,733.6,501.8,556.5,603.9
			C380.9,705.1,205.3,806.4,30.6,909c-98.8,58-196.3,120.2-280.3,198.8c-7.8,10.1-15.6,20.2-23.5,30.4c-11,17.2-16.9,35.8-17.8,55.8
			c-3.6,13.3-3.6,26.6,0,39.9c0.9,20,6.8,38.6,17.8,55.8c14,21.7,32.1,39.8,53.8,53.8c17.2,11,35.8,16.9,55.8,17.8
			c19.9,4.5,39.9,3.6,59.8-2.7c64.7-11.4,125.4-35.8,185.1-62.6c49.3-22.1,96.4-48.7,142.7-76.4c95-56.6,187.7-117.1,279-179.4
			c184.1-125.6,362.8-259,545.3-386.8c102.4-71.7,206.1-141.7,312.5-207.5c-60.6-78.5-121.2-157.1-181.8-235.6
			C1011,365.7,828,503.6,651.9,649.5c-162,134.3-319.1,276.8-449.5,442.6c-78.8,100.2-150.6,204.7-205.8,320
			c-5,11.9-10.1,23.9-15.1,35.8c-1.8,13.3-3.6,26.6-5.4,39.9c1.8,13.3,3.6,26.6,5.4,39.9c4.6,19.5,13.6,36.5,26.8,51
			c6.7,11.3,15.6,20.2,26.9,26.9c9.4,9.3,20.4,15.7,33.1,19.3c11.7,6.8,24.3,10.2,37.9,10.2c19.9,4.5,39.9,3.6,59.8-2.7
			c159.8-55.4,315.9-123.9,464.2-205.3c148.6-81.6,288-177.5,420.7-282.8c69.2-54.9,135.8-113.2,199.4-174.4
			c14.6-13.6,25-29.7,31-48.3c9.4-17.9,13.7-37.1,12.9-57.8c-1.8-13.3-3.6-26.6-5.4-39.9c-4.6-19.5-13.6-36.5-26.8-51
			c-6.7-11.3-15.6-20.2-26.9-26.9c-14.5-13.3-31.5-22.2-51-26.8c-13.3-1.8-26.6-3.6-39.9-5.4c-27.1,0.1-52.3,6.9-75.7,20.5
			c-169.7,87.6-339.5,175.5-504.4,271.9C390.1,1108,222.7,1220.5,66.2,1348c-82.7,67.4-161.4,139.8-234.5,217.6
			c-25.7,27.3-45.7,67.5-43.9,106.1c1.8,13.3,3.6,26.6,5.4,39.9c4.6,19.5,13.6,36.5,26.8,51c6.7,11.3,15.6,20.2,26.9,26.9
			c14.5,13.3,31.5,22.2,51,26.8c37.8,8.6,82.4,7.5,115.6-15.1c166.7-113.9,331.2-231.1,494.2-350.2
			c163-119.2,324.6-240.3,485.7-362.1c90.6-68.6,181.1-137.3,271.5-206.1c-60.6-78.5-121.2-157.1-181.8-235.6
			c-13.5,10.6-27,21.2-40.6,31.7c10.1-7.8,20.2-15.6,30.4-23.5c-105.1,81.1-213.7,157.6-324.3,231.2
			c-110.7,73.6-223.3,144.2-336.5,213.8c-64.2,39.4-128.7,78.5-193.2,117.6c50.5,86.3,100.9,172.7,151.4,259
			c113.8-84.1,227.6-168.2,341.4-252.3c113.8-84.1,227.6-168.2,341.4-252.3c64.2-47.5,128.5-94.9,192.7-142.4
			c17.5-9.4,31.5-22.3,42.1-38.6c13.3-14.5,22.2-31.5,26.8-51c6.3-19.9,7.1-39.9,2.7-59.8c-0.9-20-6.8-38.6-17.8-55.8
			c-20.6-32-51.4-60.2-89.6-68.9c-38.7-8.8-81-6.5-115.6,15.1c-120.2,75-240.4,150-357.9,229.1c-126.7,85.3-250.4,175.7-367.7,273.5
			c-61,50.8-120,104.1-176.3,160.1c-7.8,10.1-15.6,20.2-23.5,30.4c-11,17.2-16.9,35.8-17.8,55.8c-3.6,13.3-3.6,26.6,0,39.9
			c0.9,20,6.8,38.6,17.8,55.8c14,21.7,32.1,39.8,53.8,53.8c17.2,11,35.8,16.9,55.8,17.8c19.9,4.5,39.9,3.6,59.8-2.7
			c136.9-49.4,270.3-109.1,399.6-175.7c118.8-61.2,234.5-128.2,348.9-197.3c65-39.2,129.6-79.1,194.2-119.1
			c-60.6-78.5-121.2-157.1-181.8-235.6c-59.8,62.7-125.5,119.3-194,172.3c10.1-7.8,20.2-15.6,30.4-23.5
			c-104,80.3-214,152.4-321.9,227.4c-116,80.7-231.3,164.8-332.8,263.4c-60.8,59.1-115.3,124.3-164.3,193.5
			c-5,11.9-10.1,23.9-15.1,35.8c-6.3,19.9-7.1,39.9-2.7,59.8c0,13.5,3.5,26.2,10.2,37.9c6,18.6,16.4,34.7,31,48.3
			c19.2,17.6,41.4,30.6,66.2,38.6c19.9,6.3,39.9,7.1,59.8,2.7c20-0.9,38.6-6.8,55.8-17.8c121.1-53,238.4-114.1,353-180
			c114.2-65.7,225.5-136.2,335.8-208.3c62.8-41,125.2-82.6,187.6-124.2c32.6-21.7,58.3-51.1,68.9-89.6c6.3-19.9,7.1-39.9,2.7-59.8
			c-0.9-20-6.8-38.6-17.8-55.8c-20.6-32-51.4-60.2-89.6-68.9c-40-9.1-79.1-4.8-115.6,15.1c-116.5,63.8-226.5,138.6-332.6,218.4
			c-115.8,87.1-227.8,178.8-340.2,270.2c-58.6,47.7-117.4,95.1-177.1,141.3c10.1-7.8,20.2-15.6,30.4-23.5
			c-69.3,53.5-139.9,105.4-212.8,153.9c-21,14-40.9,31.8-53.8,53.8c-5,11.9-10.1,23.9-15.1,35.8c-6.3,19.9-7.1,39.9-2.7,59.8
			c0,13.5,3.5,26.2,10.2,37.9c3.6,12.7,10,23.7,19.3,33.1c6.7,11.3,15.6,20.2,26.9,26.9c14.5,13.3,31.5,22.2,51,26.8
			c7.3,2.9,14.7,5.3,22.4,6.7c20.4,3.8,42.1,7.4,63.1,7.5c14,0,27.8-2.2,41.7-4.1c15.2-2,30.4-3.8,45.3-7.4
			c44.8-10.8,88.4-30.5,129.9-49.9c65.5-30.6,126.8-70,187.9-108.4c127.3-80.1,251.9-164.4,375.4-250.2
			c69.9-48.5,139.4-97.5,209-146.6c17.5-9.4,31.5-22.3,42.1-38.6c13.3-14.5,22.2-31.5,26.8-51c6.3-19.9,7.1-39.9,2.7-59.8
			c-0.9-20-6.8-38.6-17.8-55.8c-20.6-32-51.4-60.2-89.6-68.9c-13.3-1.8-26.6-3.6-39.9-5.4c-27.1,0.1-52.3,6.9-75.7,20.5
			c-146.8,65.7-292.4,134.2-434.6,209.4c-141.8,75-280.2,156.7-411.8,248.5C44,1762.5-37,1824.4-114.6,1889.9
			c-14.6,13.6-25,29.7-31,48.3c-9.4,17.9-13.7,37.1-12.9,57.8c1.8,13.3,3.6,26.6,5.4,39.9c4.6,19.5,13.6,36.5,26.8,51
			c6.7,11.3,15.6,20.2,26.9,26.9c14.5,13.3,31.5,22.2,51,26.8c13.3,1.8,26.6,3.6,39.9,5.4c27.1-0.1,52.3-6.9,75.7-20.5
			c126.7-96.6,257.4-187.8,391.9-273.3c133.3-84.8,270.3-164,410.3-237.2c79.7-41.7,160.4-81.4,242-119.2
			c-60.6-78.5-121.2-157.1-181.8-235.6c-74.1,94.6-168.1,170.6-262.7,243.7c10.1-7.8,20.2-15.6,30.4-23.5
			c-120.6,93.2-248.9,183.1-345.4,302.7c-32.3,40.1-63.3,81.1-88.6,126c-5,11.9-10.1,23.9-15.1,35.8c-6.3,19.9-7.1,39.9-2.7,59.8
			c0,13.5,3.5,26.2,10.2,37.9c6,18.6,16.4,34.7,31,48.3c19.2,17.6,41.4,30.6,66.2,38.6c19.9,6.3,39.9,7.1,59.8,2.7
			c20-0.9,38.6-6.8,55.8-17.8c125.7-59.6,250.5-120.8,374.4-183.9c35.6-18.1,71.1-36.4,106.5-54.7c17.5-9.4,31.5-22.3,42.1-38.6
			c13.3-14.5,22.2-31.5,26.8-51c6.3-19.9,7.1-39.9,2.7-59.8c-0.9-20-6.8-38.6-17.8-55.8c-20.6-32-51.4-60.2-89.6-68.9
			c-13.3-1.8-26.6-3.6-39.9-5.4c-27.1,0.1-52.3,6.9-75.7,20.5c-51.9,23.3-98,56.6-141.2,93.4c-43,36.6-79.2,81.7-110.1,128.7
			c-11,17.2-16.9,35.8-17.8,55.8c-4.5,19.9-3.6,39.9,2.7,59.8c12.3,38.1,34.9,67.8,68.9,89.6c16,10.3,34.4,18.4,53,22.6
			c14.7,3.3,31,5.3,46,6.4c4.2,0.3,8.3,0.4,12.5,0.1c43.6-2.5,71.7-12.5,110.9-30.1c29.5-13.2,57.1-31.6,84-49.4
			c66.1-43.8,129.2-93.3,187-147.4c14.6-13.6,25-29.7,31-48.3c9.4-17.9,13.7-37.1,12.9-57.8c-1.8-13.3-3.6-26.6-5.4-39.9
			c-4.6-19.5-13.6-36.5-26.8-51c-6.7-11.3-15.6-20.2-26.9-26.9c-14.5-13.3-31.5-22.2-51-26.8c-40.3-9.2-78.7-4.4-115.6,15.1
			c-103.1,54.5-206.3,109-309.4,163.5c60.6,78.5,121.2,157.1,181.8,235.6c55.9-52.7,111.8-105.4,167.7-158.1
			c27.4-25.9,54.9-51.7,82.3-77.6c27.9-26.3,54.9-54.2,84.1-79c-10.1,7.8-20.2,15.6-30.4,23.5c3.5-2.7,6.9-4.8,10.9-6.6
			c-11.9,5-23.9,10.1-35.8,15.1c1-0.3,1.9-0.6,2.9-0.8c-13.3,1.8-26.6,3.6-39.9,5.4c1.9-0.4,3.9-0.5,5.8-0.2
			c-13.3-1.8-26.6-3.6-39.9-5.4c1,0.3,1.9,0.5,2.9,0.8c-11.9-5-23.9-10.1-35.8-15.1c1.7,0.7,3.2,1.6,4.6,2.8
			c-10.1-7.8-20.2-15.6-30.4-23.5c1.4,1.2,2.6,2.6,3.7,4.1c-7.8-10.1-15.6-20.2-23.5-30.4c4.7,6.8,8.5,14.1,11.9,21.7
			c-5-11.9-10.1-23.9-15.1-35.8c5.4,12.9,9.1,26.1,11.1,39.9c-1.8-13.3-3.6-26.6-5.4-39.9c1.9,14.9,1.9,29.8,0,44.7
			c1.8-13.3,3.6-26.6,5.4-39.9c-2.1,13.8-5.7,27.1-11.1,39.9c5-11.9,10.1-23.9,15.1-35.8c-4.3,9.7-9.5,18.5-15.3,27.3
			c-11.4,17.3-19.7,37.7-26.2,57c-1.3,3.8-2.2,7.5-2.9,11.4c1.8-9.7-6,30.7-5.5,43.4c0.4,12.6,2.4,31.1,5.6,43.3
			c2.1,7.9,5.1,13.4,8.7,22.1c4.6,10.9,5.2,14.2,9.8,21.6c14.6,23.7,35.3,44,59.3,58.1c33.5,19.7,78.2,25.4,115.6,15.1
			c34.8-9.6,72.5-36.5,89.6-68.9c18.4-34.8,27.6-77,15.1-115.6c-12.1-37.3-34.5-69.4-68.9-89.6c-0.7-0.4-1.4-0.8-2.1-1.3
			c10.1,7.8,20.2,15.6,30.4,23.5c-1.3-0.9-2.4-1.9-3.4-3c7.8,10.1,15.6,20.2,23.5,30.4c-0.9-1.1-1.6-2.3-2.2-3.6
			c5,11.9,10.1,23.9,15.1,35.8c-0.6-1.3-1-2.7-1.2-4.1c1.8,13.3,3.6,26.6,5.4,39.9c-0.3-2.4-0.3-4.5-0.1-7
			c-1.8,13.3-3.6,26.6-5.4,39.9c0.8-5.4,2.4-10.3,4.5-15.3c-5,11.9-10.1,23.9-15.1,35.8c3.8-8.3,8.8-15.8,13.7-23.5
			c12.1-18.8,20.1-41,28.1-61.4c3.7-9.4,6.5-19.2,8.3-29.2c4-22.2,7.9-45.7,7.9-68.5c0-21.8-3.8-44.1-7.4-65.4
			c-1.8-10.5-4.4-20.8-8.2-30.8c-7.6-19.8-15-40.6-26.3-58.8c-24.1-38.9-59.1-69.4-104-81.3c-29.4-7.8-59.3-6.2-88.5,1
			c-9.9,2.5-33.1,11.9-45.4,20.7c-20.8,14.8-38.1,30.2-56.3,47.4c-19.8,18.7-39.6,37.4-59.5,56.1c-38.6,36.4-77.3,72.8-115.9,109.2
			c-44.7,42.2-89.5,84.3-134.2,126.5c-14.6,13.6-25,29.7-31,48.3c-9.4,17.9-13.7,37.1-12.9,57.8c1.8,13.3,3.6,26.6,5.4,39.9
			c4.6,19.5,13.6,36.5,26.8,51c6.7,11.3,15.6,20.2,26.9,26.9c14.5,13.3,31.5,22.2,51,26.8c40.3,9.2,78.7,4.4,115.6-15.1
			c103.1-54.5,206.3-109,309.4-163.5c-60.6-78.5-121.2-157.1-181.8-235.6c-27.8,26-56.9,50.7-87,74.1c10.1-7.8,20.2-15.6,30.4-23.5
			c-24.7,19-50,37-76.1,54.1c-24.9,16.3-50.3,33.2-77.6,45.3c11.9-5,23.9-10.1,35.8-15.1c-10.4,4.3-20.9,7.7-32,9.3
			c13.3-1.8,26.6-3.6,39.9-5.4c-5.3,0.5-10.4,0.6-15.7,0.2c13.3,1.8,26.6,3.6,39.9,5.4c-5.2-0.7-10-1.9-14.9-3.9
			c11.9,5,23.9,10.1,35.8,15.1c-3-1.4-5.6-2.9-8.4-4.6c17.9,68.4,35.9,136.8,53.8,205.2c6.8-10.3,14-20.4,21.5-30.2
			c-7.8,10.1-15.6,20.2-23.5,30.4c24.3-31.1,52.3-58.8,83.5-83c-10.1,7.8-20.2,15.6-30.4,23.5c28.7-21.9,59.6-40.3,92.5-55.1
			c-50.5-86.3-100.9-172.7-151.4-259c-123.4,64-247.8,126.3-372.9,186.9c-35.9,17.4-72,34.6-108,51.7
			c68.4,68.4,136.8,136.8,205.2,205.2c16.5-29.3,35.2-57.2,55.7-83.8c-7.8,10.1-15.6,20.2-23.5,30.4
			c73.1-94,166.4-169.2,260.2-241.6c-10.1,7.8-20.2,15.6-30.4,23.5c100.5-77.6,204.6-152.5,293.5-243.7c22.6-23.2,44-47.4,63.9-72.9
			c14.6-13.6,25-29.7,31-48.3c9.4-17.9,13.7-37.1,12.9-57.8c-1.8-13.3-3.6-26.6-5.4-39.9c-4.6-19.5-13.6-36.5-26.8-51
			c-6.7-11.3-15.6-20.2-26.9-26.9c-14.5-13.3-31.5-22.2-51-26.8c-13.3-1.8-26.6-3.6-39.9-5.4c-27.1,0.1-52.3,6.9-75.7,20.5
			c-144.5,67-286.2,140.1-424.5,219.1c-137.2,78.4-271.1,162.6-401.2,252.2c-74,51-146.8,103.9-218.3,158.4
			c60.6,78.5,121.2,157.1,181.8,235.6c30.6-25.9,61.8-51,93.6-75.6c-10.1,7.8-20.2,15.6-30.4,23.5c114-87.9,234.4-167.3,358.7-240
			c124.7-72.9,253.1-139.3,383.3-201.8c73.6-35.3,147.8-69.4,222.4-102.7c-50.5-86.3-100.9-172.7-151.4-259
			c-203.6,143.5-407.3,287-619,418.4c-56.9,35.3-114.2,70.5-176,96.9c11.9-5,23.9-10.1,35.8-15.1c-31,13.1-63.2,24.8-96.7,29.4
			c13.3-1.8,26.6-3.6,39.9-5.4c-13.3,1.6-26.4,1.8-39.7,0.2c13.3,1.8,26.6,3.6,39.9,5.4c-9.6-1.5-18.7-3.9-27.7-7.6
			c11.9,91.4,23.9,182.8,35.8,274.2c188.1-125.1,361.2-271.2,536.5-413.2c47.3-38.3,94.8-76.3,142.9-113.5
			c-10.1,7.8-20.2,15.6-30.4,23.5c121.9-94.1,248.1-183.1,383.3-257.1c-50.5-86.3-100.9-172.7-151.4-259
			c-110.2,73.4-220.4,146.9-332.6,217.3c-111.4,70-224.7,137.1-341.4,198c-66.4,34.6-133.8,67.2-202.4,97.2
			c68.4,68.4,136.8,136.8,205.2,205.2c8.6-12.2,17.5-24.2,26.6-36c-7.8,10.1-15.6,20.2-23.5,30.4c76.6-98.9,169.9-183.1,268.6-259.4
			c-10.1,7.8-20.2,15.6-30.4,23.5c86.8-66.9,177.7-128.1,268-190.1c99.6-68.4,198.2-138.5,291.3-215.6
			c47.3-39.2,92.6-80.7,135-125.1c25.8-27,45.6-67.8,43.9-106.1c-1.8-13.3-3.6-26.6-5.4-39.9c-4.6-19.5-13.6-36.5-26.8-51
			c-6.7-11.3-15.6-20.2-26.9-26.9c-14.5-13.3-31.5-22.2-51-26.8c-38.8-8.8-80.8-6.3-115.6,15.1
			c-195.2,120.7-390.9,241.5-596.8,343.5c-58,28.7-116.7,55.9-176.3,81.1c11.9-5,23.9-10.1,35.8-15.1
			c-44.1,18.6-88.7,36.1-133.8,52.4c48.6,83.6,97.3,167.1,145.9,250.7c84.9-84.4,175.9-162.5,270.6-235.7
			c-10.1,7.8-20.2,15.6-30.4,23.5c149.1-115.2,306.7-218.5,466-319c44.9-28.3,89.9-56.4,135-84.5c-50.5-86.3-100.9-172.7-151.4-259
			C980.6,655,866.8,739.1,753,823.2s-227.6,168.2-341.4,252.3c-64.2,47.5-128.5,94.9-192.7,142.4c-17.5,9.4-31.5,22.3-42.1,38.6
			c-13.3,14.5-22.2,31.5-26.8,51c-6.3,19.9-7.1,39.9-2.7,59.8c0.9,20,6.8,38.6,17.8,55.8c20.6,32,51.4,60.2,89.6,68.9
			c39,8.9,80.6,6.1,115.6-15.1c119.9-72.7,239.8-145.4,358.2-220.3c118.4-74.9,235.4-152,349.3-233.5
			c73.8-52.8,146.1-107.6,217.3-163.8c14.6-13.6,25-29.7,31-48.3c9.4-17.9,13.7-37.1,12.9-57.8c-1.8-13.3-3.6-26.6-5.4-39.9
			c-4.6-19.5-13.6-36.5-26.8-51c-6.7-11.3-15.6-20.2-26.9-26.9c-14.5-13.3-31.5-22.2-51-26.8c-13.3-1.8-26.6-3.6-39.9-5.4
			c-27.1,0.1-52.3,6.9-75.7,20.5C952.7,745.9,791.9,868.2,630.2,989.2c-161.7,121-324.3,240.7-488.7,357.9
			C49,1413-44.1,1478.1-137.9,1542.2c60.6,78.5,121.2,157.1,181.8,235.6c89.5-95.3,187.4-182.3,290.8-262.3
			c-10.1,7.8-20.2,15.6-30.4,23.5c109.4-84.5,224.7-161.3,342.9-232.9c119-72.1,241-139,364-204c69.4-36.7,139.1-72.7,208.9-108.7
			c-60.6-78.5-121.2-157.1-181.8-235.6C966,827.3,890,892.8,810.6,954.2c10.1-7.8,20.2-15.6,30.4-23.5
			c-148.4,114.5-308.3,214.2-476.6,296.8c-47.2,23.1-95,44.9-143.4,65.4c11.9-5,23.9-10.1,35.8-15.1c-56.1,23.6-113,45.5-170.5,65.4
			c56.5,73.4,112.9,146.9,169.4,220.3c47-98.4,105.9-190.6,172.5-277c-7.8,10.1-15.6,20.2-23.5,30.4
			c100-129.1,216.2-244.7,338.6-352.4c135.2-119.1,277.9-229.2,417.3-343.3c78.5-64.3,156-129.9,230.6-198.8
			c14.6-13.6,25-29.7,31-48.3c9.4-17.9,13.7-37.1,12.9-57.8c-1.8-13.3-3.6-26.6-5.4-39.9c-4.6-19.5-13.6-36.5-26.8-51
			c-6.7-11.3-15.6-20.2-26.9-26.9c-14.5-13.3-31.5-22.2-51-26.8c-38.8-8.8-80.9-6.4-115.6,15.1c-172.9,107-338.6,224.9-503.6,343.5
			c-165,118.6-329.6,238-500.6,347.9c-93.9,60.3-189.4,122.3-292.4,166.1c11.9-5,23.9-10.1,35.8-15.1c-42.6,17.9-86.6,32-132.1,40
			c48.6,83.6,97.3,167.1,145.9,250.7c20.1-18.8,41.1-36.5,62.8-53.4c-10.1,7.8-20.2,15.6-30.4,23.5
			c68.8-52.9,143.9-96.8,218.7-140.5c82.5-48.2,165.2-96.3,247.9-144.2c165.4-95.9,331.1-191.2,496.9-286.4
			c93.8-53.9,187.6-107.7,281.4-161.5c-50.5-86.3-100.9-172.7-151.4-259C928.7,416.6,767.2,532.2,603.8,645.2
			c-163.3,113-328.5,223.3-495.4,331c-94.2,60.8-189,120.7-284.3,179.8c50.5,86.3,100.9,172.7,151.4,259
			c166.1-126.7,336.4-247.9,509.1-365.5c171.6-116.9,345.6-230.4,520.3-342.6c98.7-63.4,197.7-126.4,296.7-189.4
			c-50.5-86.3-100.9-172.7-151.4-259C1006.9,357,863.7,455.6,719.5,552.8c-144.7,97.5-290.5,193.7-438,286.9
			c-40.8,25.7-81.6,51.3-122.7,76.5c-38.1,23.4-76.8,46-118.1,63.6c11.9-5,23.9-10.1,35.8-15.1c-29.6,12.3-60.2,21.7-92,26.3
			c48.6,83.6,97.3,167.1,145.9,250.7C252.1,1103,389.3,979.2,530.8,861.3c142.1-118.4,288.6-231.5,430.1-350.5
			c79.3-66.7,157.1-135.3,231.4-207.5c14.6-13.6,25-29.7,31-48.3c9.4-17.9,13.7-37.1,12.9-57.8c-1.8-13.3-3.6-26.6-5.4-39.9
			c-4.6-19.5-13.6-36.5-26.8-51c-6.7-11.3-15.6-20.2-26.9-26.9c-14.5-13.3-31.5-22.2-51-26.8c-37.8-8.6-82.3-7.5-115.6,15.1
			C886.5,152,760.5,233.5,632.7,312C504.9,390.5,375.2,466.1,244,538.6c-72.1,39.8-144.1,82.5-220,114.6c11.9-5,23.9-10.1,35.8-15.1
			C35,648.4,9.7,657.1-16.5,663c48.6,83.6,97.3,167.1,145.9,250.7c93-99.6,193.3-192.1,298.6-278.6c29.7-24.4,59.8-48.3,90.2-71.7
			c-10.1,7.8-20.2,15.6-30.4,23.5c175.3-135.2,361.2-256,550.2-371.1c53.1-32.3,106.5-64.2,159.9-95.9
			c-60.6-78.5-121.2-157.1-181.8-235.6C905.4-21.9,792.9,70.1,678.9,160c-32.1,25.3-64.4,50.5-96.8,75.6
			c10.1-7.8,20.2-15.6,30.4-23.5c-120.7,93.2-243.1,184.3-367.1,273c-124,88.7-249.7,175.2-376.9,259.3
			c-35.2,23.3-70.6,46.4-106.1,69.4c-34.6,22.4-69,45.9-107.1,62c11.9-5,23.9-10.1,35.8-15.1c-12.5,5.1-25.3,9.3-38.4,12.3
			c48.6,83.6,97.3,167.1,145.9,250.7c130-161.3,270-314.4,415.6-461.7C360.1,514.5,511.6,372.6,665,232.9
			C751.3,154.3,838.2,76.4,925.2-1.5c14.6-13.6,25-29.7,31-48.3c9.4-17.9,13.7-37.1,12.9-57.8c-1.8-13.3-3.6-26.6-5.4-39.9
			c-4.6-19.5-13.6-36.5-26.8-51c-6.7-11.3-15.6-20.2-26.9-26.9c-14.5-13.3-31.5-22.2-51-26.8c-13.3-1.8-26.6-3.6-39.9-5.4
			c-27.1,0.1-52.3,6.9-75.7,20.5C626.2-176.7,517.2-102.1,410-25.7c-106.8,76-212.4,154-324.6,221.9
			c-63.2,38.2-128.4,73-196.3,102.2C-50.3,376.9,10.3,455.5,70.9,534c126.5-136.9,264.8-262.2,405.3-384.4
			c39.9-34.7,80-69.2,120.1-103.6C525.6-24.8,454.9-95.5,384.2-166.2C237.6-30.7,86.4,99.7-69.2,224.8
			c-43.6,35-87.5,69.6-131.7,103.8c10.1-7.8,20.2-15.6,30.4-23.5c-44.2,34.2-88.8,67.9-133.7,101.2
			c68.4,68.4,136.8,136.8,205.2,205.2c21.9-40,47.4-77.7,75.2-113.8c-7.8,10.1-15.6,20.2-23.5,30.4
			c70.3-90.7,153.4-170.2,229.8-255.6c19.1-21.4,37.8-43.1,55.7-65.5c31.8-39.7,69.1-81,85.3-130.3c20.1-60.8,0-123.6-42.9-168.6
			c-25.2-26.4-63.9-44.6-99.3-51.2c-52.6-9.9-107-8.8-157.5,10.7C-2.4-122.3-29-111.4-52.8-96.3c-14.1,8.9-27.5,18.8-40.8,28.8
			c-26.6,19.9-53.1,40-83.4,54.1c50.5,86.3,100.9,172.7,151.4,259c70.7-37,141.4-73.9,212.1-110.9c17.5-9.4,31.5-22.3,42.1-38.6
			c13.3-14.5,22.2-31.5,26.8-51c6.3-19.9,7.1-39.9,2.7-59.8c-0.9-20-6.8-38.6-17.8-55.8c-20.6-32-51.4-60.2-89.6-68.9
			C110.2-148.7,72.1-143.7,35-124.3L35-124.3z"/>
	</g>
</g>
</svg>
