<?xml version="1.0" encoding="utf-8"?>
<!-- Generator: Adobe Illustrator 26.0.3, SVG Export Plug-In . SVG Version: 6.00 Build 0)  -->
<svg version="1.1" id="圖層_1" xmlns="http://www.w3.org/2000/svg" xmlns:xlink="http://www.w3.org/1999/xlink" x="0px" y="0px"
	 viewBox="0 0 128.09 130" style="enable-background:new 0 0 128.09 130;" xml:space="preserve">
<style type="text/css">
	.st0{fill-rule:evenodd;clip-rule:evenodd;}
	.st1{fill:#221F20;}
	.st2{fill:#262525;}
</style>
<g>
	<g>
		<path class="st1" d="M64.01,101.05H39.39c-0.55,0-1-0.45-1-1V38.98c0-0.55,0.45-1,1-1h4.35c0.27,0,0.53,0.11,0.72,0.31
			c0.19,0.2,0.29,0.46,0.28,0.73l-0.33,8.08l8.03,3.06c0.34,0.13,0.58,0.43,0.63,0.78c0.06,0.35-0.08,0.71-0.36,0.94l-5.48,4.38
			l17.7,43.42c0.13,0.31,0.09,0.66-0.1,0.94C64.65,100.89,64.34,101.05,64.01,101.05z M40.39,99.05h22.13L45.1,56.32
			c-0.17-0.41-0.04-0.88,0.3-1.16l4.7-3.75l-7.07-2.69c-0.4-0.15-0.66-0.55-0.64-0.98l0.32-7.76h-2.31V99.05z"/>
	</g>
	<g>
		<path class="st1" d="M88.7,101.05H64.08c-0.33,0-0.64-0.17-0.83-0.44c-0.19-0.28-0.22-0.63-0.1-0.94l17.7-43.42l-5.48-4.38
			c-0.28-0.22-0.42-0.58-0.36-0.94c0.06-0.35,0.3-0.65,0.63-0.78l8.03-3.06l-0.33-8.08c-0.01-0.27,0.09-0.54,0.28-0.73
			c0.19-0.2,0.45-0.31,0.72-0.31h4.35c0.55,0,1,0.45,1,1v61.07C89.7,100.6,89.25,101.05,88.7,101.05z M65.56,99.05H87.7V39.98h-2.31
			l0.32,7.76c0.02,0.43-0.24,0.82-0.64,0.98l-7.07,2.69l4.69,3.75c0.35,0.28,0.47,0.75,0.3,1.16L65.56,99.05z"/>
	</g>
	<g>
		<path class="st1" d="M64.01,101.05c-0.4,0-0.77-0.24-0.93-0.62L45.1,56.32c-0.17-0.41-0.04-0.88,0.3-1.16l4.7-3.75l-7.07-2.69
			c-0.4-0.15-0.66-0.55-0.64-0.98l0.4-9.6c0.01-0.3,0.16-0.58,0.4-0.76l7.54-5.58c0.28-0.21,0.64-0.25,0.96-0.13
			c0.32,0.13,0.55,0.41,0.62,0.75l12.69,67.45c0.09,0.5-0.21,1-0.7,1.14C64.2,101.04,64.1,101.05,64.01,101.05z M47.23,56.25
			L61.19,90.5L50.63,34.36l-5.87,4.35l-0.35,8.4l8.03,3.06c0.34,0.13,0.58,0.43,0.63,0.78c0.06,0.35-0.08,0.71-0.36,0.94
			L47.23,56.25z"/>
	</g>
	<g>
		<path class="st1" d="M49.95,34.62c-0.31,0-0.61-0.14-0.8-0.4c-0.33-0.44-0.24-1.07,0.21-1.4l1.36-1.01
			c0.44-0.33,1.07-0.24,1.4,0.21s0.24,1.07-0.21,1.4l-1.36,1.01C50.37,34.55,50.16,34.62,49.95,34.62z"/>
	</g>
	<g>
		<path class="st1" d="M64.08,101.05c-0.09,0-0.19-0.01-0.28-0.04c-0.49-0.14-0.79-0.64-0.7-1.14l12.69-67.45
			c0.06-0.34,0.3-0.62,0.62-0.75c0.32-0.13,0.68-0.08,0.96,0.13l7.54,5.58c0.24,0.18,0.39,0.46,0.4,0.76l0.4,9.6
			c0.02,0.43-0.24,0.82-0.64,0.98l-7.07,2.69l4.69,3.75c0.35,0.28,0.47,0.75,0.3,1.16L65,100.43
			C64.85,100.81,64.47,101.05,64.08,101.05z M77.46,34.36L66.89,90.5l13.96-34.24l-5.48-4.38c-0.28-0.22-0.42-0.58-0.36-0.94
			c0.06-0.35,0.3-0.65,0.63-0.78l8.03-3.06l-0.35-8.4L77.46,34.36z"/>
	</g>
	<g>
		<path class="st1" d="M64.08,101.05c-0.48,0-0.96-0.34-1.05-0.82L51.14,37.06c-0.05-0.29,0.02-0.59,0.21-0.82s0.47-0.36,0.77-0.36
			h23.85c0.3,0,0.58,0.13,0.77,0.36c0.19,0.23,0.27,0.53,0.21,0.82l-0.4,2.11l-11.49,61.07C64.97,100.71,64.56,101.05,64.08,101.05z
			 M53.32,37.88l10.72,56.95l10.72-56.95H53.32z"/>
	</g>
	<g>
		<path class="st1" d="M75.97,37.88H52.12c-0.48,0-0.89-0.34-0.98-0.82l-0.8-4.27c-0.05-0.29,0.02-0.59,0.21-0.82
			c0.19-0.23,0.47-0.36,0.77-0.36h25.45c0.3,0,0.58,0.13,0.77,0.36c0.19,0.23,0.27,0.53,0.21,0.82l-0.8,4.27
			C76.86,37.53,76.45,37.88,75.97,37.88z M52.95,35.88h22.19l0.43-2.27H52.52L52.95,35.88z"/>
	</g>
	<g>
		<path class="st1" d="M78.13,34.62c-0.21,0-0.42-0.06-0.59-0.2l-1.36-1.01c-0.44-0.33-0.54-0.96-0.21-1.4
			c0.33-0.44,0.96-0.54,1.4-0.21l1.36,1.01c0.44,0.33,0.54,0.96,0.21,1.4C78.74,34.48,78.44,34.62,78.13,34.62z"/>
	</g>
</g>
<g>
	<path class="st1" d="M64.01,116.51c-28.38,0-51.47-23.09-51.47-51.47s23.09-51.47,51.47-51.47s51.47,23.09,51.47,51.47
		S92.39,116.51,64.01,116.51z M64.01,15.57c-27.28,0-49.47,22.19-49.47,49.47c0,27.28,22.19,49.47,49.47,49.47
		c27.28,0,49.47-22.19,49.47-49.47C113.48,37.76,91.29,15.57,64.01,15.57z"/>
</g>
</svg>
