<?xml version="1.0" encoding="utf-8"?>
<!-- Generator: Adobe Illustrator 26.0.3, SVG Export Plug-In . SVG Version: 6.00 Build 0)  -->
<svg version="1.1" id="圖層_1" xmlns="http://www.w3.org/2000/svg" xmlns:xlink="http://www.w3.org/1999/xlink" x="0px" y="0px"
	 viewBox="0 0 128.09 130" style="enable-background:new 0 0 128.09 130;" xml:space="preserve">
<style type="text/css">
	.st0{fill-rule:evenodd;clip-rule:evenodd;}
	.st1{fill:#221F20;}
	.st2{fill:#262525;}
</style>
<g>
	<g>
		<g>
			<g>
				<path class="st1" d="M53.22,70.82c-12.97,0-23.52-7.05-23.52-15.71S40.25,39.4,53.22,39.4c12.97,0,23.52,7.05,23.52,15.71
					S66.19,70.82,53.22,70.82z M53.22,41.67c-11.72,0-21.25,6.03-21.25,13.44c0,7.41,9.53,13.44,21.25,13.44
					c11.72,0,21.25-6.03,21.25-13.44C74.46,47.7,64.93,41.67,53.22,41.67z"/>
			</g>
		</g>
		<g>
			<g>
				<path class="st1" d="M53.22,62.34c-8.58,0-15.04-3.11-15.04-7.23c0-4.12,6.47-7.23,15.04-7.23c8.58,0,15.04,3.11,15.04,7.23
					C68.26,59.23,61.79,62.34,53.22,62.34z M53.22,50.15c-7.31,0-12.77,2.62-12.77,4.96c0,2.34,5.46,4.96,12.77,4.96
					c7.31,0,12.77-2.62,12.77-4.96C65.99,52.77,60.52,50.15,53.22,50.15z"/>
			</g>
		</g>
		<g>
			<g>
				<path class="st1" d="M98.79,80.98H53.22c-13.05,0-23.59-7.65-23.59-12.64c0-0.77,0-1.37,0.02-1.82l-0.01-0.2l0.02,0
					c0.01-0.12,0.02-0.22,0.03-0.32V55.11c0-0.63,0.51-1.14,1.14-1.14c0.63,0,1.14,0.51,1.14,1.14c0,7.41,9.53,13.44,21.25,13.44
					h45.57c0.63,0,1.14,0.51,1.14,1.14v10.15C99.92,80.47,99.42,80.98,98.79,80.98z M31.9,67.57c0,0.22,0,0.47,0,0.76
					c0,3.09,8.97,10.37,21.25,10.37h44.51v-7.88H53.22c-9.36,0-17.47-3.67-21.25-8.98v5.33c0,0.04,0,0.09-0.01,0.13
					C31.95,67.4,31.93,67.49,31.9,67.57z"/>
			</g>
		</g>
		<g>
			<g>
				<path class="st1" d="M75.24,70.82H53.22c-0.63,0-1.14-0.51-1.14-1.14c0-0.63,0.51-1.14,1.14-1.14
					c10.87,0,19.95-5.16,21.13-11.99c0.1-0.58,0.63-0.98,1.22-0.94c0.59,0.05,1.04,0.54,1.04,1.13v9.24c0.01,0.1,0.03,0.2,0.03,0.32
					l0.02,0l-0.01,0.2c0.02,0.46,0.02,1.05,0.02,1.82c0,0.57-0.13,1.17-0.38,1.78C76.11,70.54,75.7,70.82,75.24,70.82z M65.43,68.55
					h8.96c0.01-0.07,0.01-0.15,0.01-0.22c0-0.29,0-0.54,0-0.76c-0.03-0.08-0.05-0.17-0.06-0.26c-0.01-0.04-0.01-0.09-0.01-0.14v-5.1
					C72.34,64.77,69.23,67.01,65.43,68.55z"/>
			</g>
		</g>
		<g>
			<g>
				<path class="st1" d="M94.27,80.98h-7.33v-4.71h2.27v2.44h2.78v-4.71h2.27V80.98z M84.25,80.98h-7.33v-4.71h2.27v2.44h2.78v-4.71
					h2.27V80.98z M74.23,80.98H66.9v-4.71h2.27v2.44h2.78v-4.71h2.27V80.98z M64.21,80.98h-7.33v-4.71h2.27v2.44h2.78v-4.71h2.27
					V80.98z"/>
			</g>
		</g>
		<g>
			<g>
				<path class="st1" d="M54.19,79.84h-2.27v-5.85h2.27V79.84z M49.14,79.42h-2.27v-3.15h2.27V79.42z"/>
			</g>
		</g>
	</g>
	<g>
		<g>
			<path class="st1" d="M98.79,83.26c-0.26,0-0.51-0.09-0.71-0.25c-0.27-0.22-0.43-0.54-0.43-0.89V67.38c0-0.33,0.15-0.65,0.4-0.87
				c0.26-0.22,0.59-0.31,0.92-0.25l4.95,0.84c0.55,0.09,0.95,0.57,0.95,1.12V81c0,0.53-0.37,0.99-0.89,1.11l-4.95,1.12
				C98.95,83.25,98.87,83.26,98.79,83.26z M99.92,68.72V80.7l2.67-0.6V69.18L99.92,68.72z"/>
		</g>
	</g>
</g>
<g>
	<path class="st1" d="M64.77,116.51c-28.38,0-51.47-23.09-51.47-51.47s23.09-51.47,51.47-51.47s51.47,23.09,51.47,51.47
		S93.16,116.51,64.77,116.51z M64.77,15.57c-27.28,0-49.47,22.19-49.47,49.47c0,27.28,22.19,49.47,49.47,49.47
		c27.28,0,49.47-22.19,49.47-49.47C114.25,37.76,92.05,15.57,64.77,15.57z"/>
</g>
</svg>
