<?xml version="1.0" encoding="utf-8"?>
<!-- Generator: Adobe Illustrator 26.0.3, SVG Export Plug-In . SVG Version: 6.00 Build 0)  -->
<svg version="1.1" id="圖層_1" xmlns="http://www.w3.org/2000/svg" xmlns:xlink="http://www.w3.org/1999/xlink" x="0px" y="0px"
	 viewBox="0 0 128.09 130" style="enable-background:new 0 0 128.09 130;" xml:space="preserve">
<style type="text/css">
	.st0{fill-rule:evenodd;clip-rule:evenodd;}
	.st1{fill:#221F20;}
	.st2{fill:#262525;}
</style>
<g id="XMLID_9443_">
	<g id="XMLID_9470_">
		<path class="st2" d="M79.48,54.09c-12.19,0-24.38,0-36.57,0c-1.46,0-1.47,2.27,0,2.27c12.19,0,24.38,0,36.57,0
			C80.94,56.37,80.94,54.09,79.48,54.09z"/>
		<path class="st1" d="M79.48,56.49H42.91c-0.8,0-1.22-0.63-1.22-1.26c0-0.63,0.42-1.26,1.22-1.26h36.57c0.8,0,1.22,0.63,1.22,1.26
			C80.7,55.86,80.28,56.49,79.48,56.49z M42.91,54.22c-0.67,0-0.97,0.53-0.97,1.01c0,0.49,0.3,1.01,0.97,1.01h36.57
			c0.67,0,0.97-0.52,0.97-1.01c0-0.49-0.3-1.01-0.97-1.01H42.91z"/>
	</g>
	<g id="XMLID_9469_">
		<path class="st2" d="M79.48,64.46c-12.19,0-24.38,0-36.57,0c-1.46,0-1.47,2.27,0,2.27c12.19,0,24.38,0,36.57,0
			C80.94,66.74,80.94,64.46,79.48,64.46z"/>
		<path class="st1" d="M79.48,66.86H42.91c-0.8,0-1.22-0.63-1.22-1.26c0-0.63,0.42-1.26,1.22-1.26h36.57c0.8,0,1.22,0.63,1.22,1.26
			C80.7,66.23,80.28,66.86,79.48,66.86z M42.91,64.59c-0.67,0-0.97,0.52-0.97,1.01c0,0.49,0.3,1.01,0.97,1.01h36.57
			c0.67,0,0.97-0.52,0.97-1.01c0-0.49-0.3-1.01-0.97-1.01H42.91z"/>
	</g>
	<g id="XMLID_9468_">
		<path class="st2" d="M79.48,74.83c-12.19,0-24.38,0-36.57,0c-1.46,0-1.47,2.27,0,2.27c12.19,0,24.38,0,36.57,0
			C80.94,77.11,80.94,74.83,79.48,74.83z"/>
		<path class="st1" d="M79.48,77.23H42.91c-0.8,0-1.22-0.63-1.22-1.26c0-0.63,0.42-1.26,1.22-1.26h36.57c0.8,0,1.22,0.63,1.22,1.26
			C80.7,76.6,80.28,77.23,79.48,77.23z M42.91,74.96c-0.67,0-0.97,0.52-0.97,1.01c0,0.49,0.3,1.01,0.97,1.01h36.57
			c0.67,0,0.97-0.52,0.97-1.01c0-0.49-0.3-1.01-0.97-1.01H42.91z"/>
	</g>
	<g id="XMLID_9467_">
		<path class="st2" d="M79.48,85.2c-12.19,0-24.38,0-36.57,0c-1.46,0-1.47,2.27,0,2.27c12.19,0,24.38,0,36.57,0
			C80.94,87.48,80.94,85.2,79.48,85.2z"/>
		<path class="st1" d="M79.48,87.6H42.91c-0.8,0-1.22-0.63-1.22-1.26s0.42-1.26,1.22-1.26h36.57c0.8,0,1.22,0.63,1.22,1.26
			S80.28,87.6,79.48,87.6z M42.91,85.33c-0.67,0-0.97,0.53-0.97,1.01s0.3,1.01,0.97,1.01h36.57c0.67,0,0.97-0.53,0.97-1.01
			s-0.3-1.01-0.97-1.01H42.91z"/>
	</g>
	<g id="XMLID_9464_">
		<path class="st2" d="M46.77,44.86c0-1.61-1.31-2.92-2.92-2.92s-2.92,1.31-2.92,2.92c0,1.61,1.31,2.92,2.92,2.92
			S46.77,46.47,46.77,44.86z M42.14,44.86c0-0.94,0.77-1.71,1.71-1.71c0.94,0,1.71,0.77,1.71,1.71c0,0.94-0.77,1.71-1.71,1.71
			C42.9,46.57,42.14,45.8,42.14,44.86z"/>
		<path class="st1" d="M43.84,47.91c-1.68,0-3.04-1.37-3.04-3.04c0-1.68,1.37-3.04,3.04-3.04c1.68,0,3.05,1.37,3.05,3.04
			C46.89,46.54,45.52,47.91,43.84,47.91z M43.84,42.07c-1.54,0-2.79,1.25-2.79,2.79c0,1.54,1.25,2.79,2.79,2.79
			c1.54,0,2.8-1.25,2.8-2.79C46.64,43.32,45.39,42.07,43.84,42.07z M43.84,46.69c-1.01,0-1.83-0.82-1.83-1.83
			c0-1.01,0.82-1.83,1.83-1.83c1.01,0,1.83,0.82,1.83,1.83C45.68,45.87,44.86,46.69,43.84,46.69z M43.84,43.28
			c-0.87,0-1.58,0.71-1.58,1.58c0,0.87,0.71,1.58,1.58,1.58c0.87,0,1.58-0.71,1.58-1.58C45.43,43.99,44.72,43.28,43.84,43.28z"/>
	</g>
	<g id="XMLID_9461_">
		<path class="st2" d="M52.52,47.78c1.61,0,2.92-1.31,2.92-2.92c0-1.61-1.31-2.92-2.92-2.92c-1.61,0-2.92,1.31-2.92,2.92
			C49.6,46.47,50.91,47.78,52.52,47.78z M52.52,43.15c0.94,0,1.71,0.77,1.71,1.71c0,0.94-0.77,1.71-1.71,1.71
			c-0.94,0-1.71-0.77-1.71-1.71C50.81,43.92,51.58,43.15,52.52,43.15z"/>
		<path class="st1" d="M52.52,47.91c-1.68,0-3.04-1.37-3.04-3.04c0-1.68,1.37-3.04,3.04-3.04c1.68,0,3.04,1.37,3.04,3.04
			C55.56,46.54,54.2,47.91,52.52,47.91z M52.52,42.07c-1.54,0-2.79,1.25-2.79,2.79c0,1.54,1.25,2.79,2.79,2.79s2.79-1.25,2.79-2.79
			C55.31,43.32,54.06,42.07,52.52,42.07z M52.52,46.69c-1.01,0-1.83-0.82-1.83-1.83c0-1.01,0.82-1.83,1.83-1.83
			c1.01,0,1.83,0.82,1.83,1.83C54.35,45.87,53.53,46.69,52.52,46.69z M52.52,43.28c-0.87,0-1.58,0.71-1.58,1.58
			c0,0.87,0.71,1.58,1.58,1.58c0.87,0,1.58-0.71,1.58-1.58C54.1,43.99,53.39,43.28,52.52,43.28z"/>
	</g>
	<g id="XMLID_9458_">
		<path class="st2" d="M61.19,47.78c1.61,0,2.92-1.31,2.92-2.92c0-1.61-1.31-2.92-2.92-2.92c-1.61,0-2.92,1.31-2.92,2.92
			C58.27,46.47,59.58,47.78,61.19,47.78z M61.19,43.15c0.94,0,1.71,0.77,1.71,1.71c0,0.94-0.77,1.71-1.71,1.71s-1.71-0.77-1.71-1.71
			C59.48,43.92,60.25,43.15,61.19,43.15z"/>
		<path class="st1" d="M61.19,47.91c-1.68,0-3.04-1.37-3.04-3.04c0-1.68,1.37-3.04,3.04-3.04c1.68,0,3.05,1.37,3.05,3.04
			C64.24,46.54,62.87,47.91,61.19,47.91z M61.19,42.07c-1.54,0-2.79,1.25-2.79,2.79c0,1.54,1.25,2.79,2.79,2.79
			c1.54,0,2.8-1.25,2.8-2.79C63.99,43.32,62.73,42.07,61.19,42.07z M61.19,46.69c-1.01,0-1.83-0.82-1.83-1.83
			c0-1.01,0.82-1.83,1.83-1.83s1.83,0.82,1.83,1.83C63.02,45.87,62.2,46.69,61.19,46.69z M61.19,43.28c-0.87,0-1.58,0.71-1.58,1.58
			c0,0.87,0.71,1.58,1.58,1.58s1.58-0.71,1.58-1.58C62.77,43.99,62.06,43.28,61.19,43.28z"/>
	</g>
	<g id="XMLID_9455_">
		<path class="st2" d="M69.86,47.78c1.61,0,2.92-1.31,2.92-2.92c0-1.61-1.31-2.92-2.92-2.92c-1.61,0-2.92,1.31-2.92,2.92
			C66.94,46.47,68.25,47.78,69.86,47.78z M69.86,43.15c0.94,0,1.71,0.77,1.71,1.71c0,0.94-0.77,1.71-1.71,1.71s-1.71-0.77-1.71-1.71
			C68.16,43.92,68.92,43.15,69.86,43.15z"/>
		<path class="st1" d="M69.86,47.91c-1.68,0-3.05-1.37-3.05-3.04c0-1.68,1.37-3.04,3.05-3.04c1.68,0,3.04,1.37,3.04,3.04
			C72.91,46.54,71.54,47.91,69.86,47.91z M69.86,42.07c-1.54,0-2.8,1.25-2.8,2.79c0,1.54,1.25,2.79,2.8,2.79
			c1.54,0,2.79-1.25,2.79-2.79C72.66,43.32,71.4,42.07,69.86,42.07z M69.86,46.69c-1.01,0-1.83-0.82-1.83-1.83
			c0-1.01,0.82-1.83,1.83-1.83s1.83,0.82,1.83,1.83C71.7,45.87,70.87,46.69,69.86,46.69z M69.86,43.28c-0.87,0-1.58,0.71-1.58,1.58
			c0,0.87,0.71,1.58,1.58,1.58s1.58-0.71,1.58-1.58C71.45,43.99,70.74,43.28,69.86,43.28z"/>
	</g>
	<g id="XMLID_9452_">
		<path class="st2" d="M75.62,44.86c0,1.61,1.31,2.92,2.92,2.92c1.61,0,2.92-1.31,2.92-2.92c0-1.61-1.31-2.92-2.92-2.92
			C76.93,41.94,75.62,43.25,75.62,44.86z M78.54,43.15c0.94,0,1.71,0.77,1.71,1.71c0,0.94-0.77,1.71-1.71,1.71
			c-0.94,0-1.71-0.77-1.71-1.71C76.83,43.92,77.59,43.15,78.54,43.15z"/>
		<path class="st1" d="M78.54,47.91c-1.68,0-3.05-1.37-3.05-3.04c0-1.68,1.37-3.04,3.05-3.04c1.68,0,3.04,1.37,3.04,3.04
			C81.58,46.54,80.22,47.91,78.54,47.91z M78.54,42.07c-1.54,0-2.8,1.25-2.8,2.79c0,1.54,1.25,2.79,2.8,2.79
			c1.54,0,2.79-1.25,2.79-2.79C81.33,43.32,80.08,42.07,78.54,42.07z M78.54,46.69c-1.01,0-1.83-0.82-1.83-1.83
			c0-1.01,0.82-1.83,1.83-1.83c1.01,0,1.83,0.82,1.83,1.83C80.37,45.87,79.55,46.69,78.54,46.69z M78.54,43.28
			c-0.87,0-1.58,0.71-1.58,1.58c0,0.87,0.71,1.58,1.58,1.58c0.87,0,1.58-0.71,1.58-1.58C80.12,43.99,79.41,43.28,78.54,43.28z"/>
	</g>
	<g id="XMLID_9447_">
		<path class="st2" d="M91.69,40.95c-0.54,0.01-1.21,0-1.97-0.05v-6.89h-7.62c1.4-1.26,2.19-3.11,2.21-4.74
			c0.02-2.29-1.36-4.01-3.69-4.59c-1.71-0.42-3.22-0.18-4.38,0.71c-1.15,0.88-1.93,2.4-2.22,4.27c-0.01-0.02-0.02-0.03-0.03-0.05
			c-0.93-1.56-0.63-3.15-0.14-5.08c0.28-1.09-0.46-1.9-1.29-2.11c-0.83-0.21-1.8,0.14-2.08,1.21c-0.66,2.61-1.12,5.98,1.27,8.83
			c0.49,0.59,1.08,1.11,1.72,1.56H34.07v63.8h55.65V44.4c0.48,0.03,0.97,0.04,1.47,0.04c0.17,0,0.35,0,0.52-0.01
			c1.12-0.02,1.71-0.94,1.69-1.8C93.39,41.78,92.79,40.95,91.69,40.95z M87.9,35.82v4.88c-3.03-0.46-6.7-1.71-8.98-4.88H87.9z
			 M87.9,95.99H35.89V35.82h38.94c2.26,4.61,7.01,7.6,13.07,8.4V95.99z M91.69,43.22c-7.37,0.15-13.27-2.83-15.78-7.95
			c-0.18-0.38-0.34-0.82-0.48-1.3l-0.07-0.26l-0.24-0.12c-0.94-0.47-1.78-1.13-2.44-1.92c-2.03-2.42-1.66-5.28-1.03-7.76
			c0.07-0.29,0.27-0.35,0.43-0.35c0.07,0,0.13,0.01,0.17,0.02c0.09,0.02,0.53,0.16,0.41,0.64c-0.54,2.13-0.89,4.05,0.27,6
			c0.29,0.48,0.67,0.95,1.14,1.38l0.99,0.91l0.03-1.35c0.04-2.18,0.73-3.94,1.88-4.82c0.86-0.66,1.99-0.83,3.35-0.49
			c2.43,0.6,2.78,2.39,2.77,3.4c-0.02,2-1.47,4.4-3.86,4.94c-0.5,0.11-1.03,0.15-1.58,0.11l-1.09-0.08l0.51,0.96
			c3.43,6.48,11.37,7.03,14.63,6.97c0,0,0.01,0,0.01,0c0.41,0,0.46,0.35,0.47,0.5C92.2,42.75,92.18,43.21,91.69,43.22z"/>
		<path class="st1" d="M89.85,97.93h-55.9V33.88H73.1c-0.54-0.41-1.02-0.86-1.43-1.35c-2.43-2.9-1.97-6.3-1.3-8.94
			c0.29-1.15,1.34-1.52,2.23-1.3c0.46,0.12,0.87,0.4,1.13,0.78c0.21,0.3,0.42,0.8,0.25,1.49c-0.45,1.79-0.74,3.3-0.02,4.73
			c0.34-1.75,1.12-3.16,2.21-4c1.19-0.91,2.73-1.16,4.48-0.73c2.4,0.59,3.81,2.36,3.79,4.71c-0.02,1.65-0.79,3.39-2.02,4.62h7.43
			v6.9c0.63,0.04,1.25,0.05,1.84,0.04h0c1.18,0,1.82,0.91,1.84,1.81c0.01,0.47-0.15,0.95-0.45,1.3c-0.24,0.28-0.66,0.62-1.37,0.63
			c-0.62,0.01-1.24,0-1.87-0.03V97.93z M34.2,97.68h55.4V44.27l0.13,0.01c0.67,0.04,1.32,0.05,1.98,0.04
			c0.61-0.01,0.98-0.3,1.18-0.54c0.26-0.31,0.4-0.72,0.39-1.13c-0.02-0.75-0.52-1.56-1.59-1.56c-0.64,0.01-1.31,0-1.98-0.05
			l-0.12-0.01v-6.89h-7.82l0.24-0.22c1.32-1.19,2.15-2.97,2.17-4.65c0.02-2.23-1.32-3.9-3.6-4.47c-1.67-0.42-3.15-0.18-4.27,0.68
			c-1.11,0.85-1.89,2.34-2.18,4.19l-0.05,0.34l-0.21-0.35c-0.95-1.59-0.65-3.22-0.15-5.17c0.15-0.59-0.03-1.02-0.21-1.28
			c-0.23-0.33-0.59-0.57-0.99-0.68c-0.76-0.19-1.67,0.13-1.92,1.12c-0.66,2.58-1.11,5.91,1.25,8.72c0.47,0.56,1.05,1.08,1.7,1.54
			l0.33,0.23H34.2V97.68z M88.03,96.11H35.77V35.7h39.15l0.03,0.07c2.21,4.5,6.94,7.54,12.97,8.33l0.11,0.01V96.11z M36.02,95.86
			h51.76V44.33c-6.03-0.82-10.77-3.87-13.02-8.38H36.02V95.86z M91.16,43.35c-7.17,0-12.89-2.98-15.36-8.03
			c-0.19-0.38-0.35-0.83-0.48-1.32l-0.06-0.21l-0.19-0.1c-0.95-0.48-1.81-1.15-2.48-1.95c-2.06-2.46-1.69-5.36-1.05-7.87
			c0.07-0.28,0.27-0.45,0.55-0.45c0.08,0,0.15,0.02,0.2,0.03c0.31,0.08,0.63,0.33,0.51,0.79c-0.53,2.1-0.88,3.99,0.26,5.91
			c0.28,0.47,0.66,0.93,1.12,1.35l0.79,0.72l0.02-1.07c0.04-2.22,0.74-4.01,1.93-4.91c0.89-0.69,2.06-0.86,3.45-0.51
			c2.52,0.62,2.88,2.48,2.87,3.52c-0.02,2.05-1.51,4.5-3.95,5.06c-0.51,0.12-1.05,0.16-1.62,0.12l-0.86-0.06l0.4,0.77
			c3.39,6.4,11.29,6.97,14.52,6.9c0.44,0,0.6,0.32,0.61,0.62c0,0.31-0.16,0.69-0.63,0.69l0,0C91.52,43.35,91.34,43.35,91.16,43.35z
			 M72.09,23.68c-0.17,0-0.26,0.08-0.31,0.26c-0.62,2.45-0.99,5.27,1,7.64c0.65,0.77,1.48,1.42,2.4,1.89l0.29,0.15l0.08,0.32
			c0.13,0.48,0.29,0.91,0.47,1.28c2.42,4.96,8.06,7.89,15.13,7.89c0.18,0,0.35,0,0.53-0.01l0,0c0.35-0.01,0.38-0.31,0.38-0.44
			c0-0.25-0.12-0.37-0.34-0.37c-3.29,0.07-11.3-0.51-14.75-7.04l-0.62-1.16l1.31,0.09c0.54,0.04,1.06,0,1.55-0.11
			c2.33-0.53,3.74-2.86,3.76-4.82c0.01-0.97-0.33-2.69-2.68-3.28c-1.32-0.32-2.41-0.17-3.24,0.47c-1.12,0.86-1.79,2.58-1.83,4.72
			l-0.03,1.62l-1.2-1.1c-0.48-0.44-0.87-0.91-1.16-1.4c-1.19-1.99-0.83-3.94-0.29-6.1c0.09-0.34-0.2-0.45-0.32-0.49
			C72.2,23.69,72.15,23.68,72.09,23.68z M88.03,40.85l-0.14-0.02c-2.82-0.43-6.68-1.63-9.06-4.93l-0.14-0.2h9.35V40.85z
			 M79.17,35.95c2.3,3.02,5.91,4.17,8.61,4.61v-4.61H79.17z"/>
	</g>
	<g id="XMLID_9444_">
		<path class="st2" d="M80.37,32.6c2.01-1.33,1.86-2.8,1.71-3.37c-0.32-1.17-1.52-2.07-2.85-2.12c-1.37-0.06-2.52,0.79-3.06,2.26
			c-0.34,0.93-0.38,2.01-0.1,3.2l0.08,0.33l0.32,0.11c0.54,0.18,1.08,0.27,1.59,0.27C78.9,33.28,79.69,33.05,80.37,32.6z
			 M77.18,31.95c-0.15-0.82-0.11-1.53,0.13-2.16c0.36-0.98,1.02-1.51,1.87-1.47c0.79,0.03,1.55,0.58,1.73,1.24
			c0.19,0.67-0.24,1.39-1.21,2.03C78.84,32.16,77.9,32.13,77.18,31.95z"/>
		<path class="st1" d="M78.07,33.4c-0.53,0-1.08-0.09-1.63-0.27L76.05,33l-0.09-0.4c-0.29-1.22-0.25-2.32,0.1-3.27
			c0.55-1.48,1.67-2.35,3.03-2.35c0.05,0,0.1,0,0.15,0c1.38,0.06,2.63,0.99,2.97,2.21c0.17,0.6,0.33,2.13-1.76,3.5l0,0
			C79.75,33.16,78.93,33.4,78.07,33.4z M76.26,32.81l0.26,0.08c1.38,0.45,2.72,0.31,3.79-0.4l0,0c1.95-1.28,1.81-2.68,1.65-3.23
			c-0.31-1.12-1.46-1.98-2.74-2.03c-1.31-0.05-2.41,0.75-2.94,2.18c-0.34,0.91-0.37,1.96-0.09,3.13L76.26,32.81z M78.07,32.19
			c-0.3,0-0.6-0.04-0.92-0.11l-0.08-0.02l-0.01-0.08c-0.15-0.85-0.11-1.57,0.13-2.23c0.38-1.04,1.1-1.59,1.99-1.55
			c0.84,0.04,1.65,0.62,1.85,1.33c0.2,0.73-0.24,1.5-1.26,2.17C79.27,32.02,78.7,32.19,78.07,32.19z M77.29,31.85
			c0.89,0.2,1.67,0.08,2.35-0.37c0.91-0.6,1.32-1.27,1.15-1.89c-0.17-0.61-0.88-1.11-1.62-1.15c-0.78-0.04-1.4,0.46-1.75,1.39
			C77.21,30.42,77.16,31.08,77.29,31.85z"/>
	</g>
</g>
<g>
	<path class="st1" d="M63.74,116.51c-28.38,0-51.47-23.09-51.47-51.47s23.09-51.47,51.47-51.47s51.47,23.09,51.47,51.47
		S92.12,116.51,63.74,116.51z M63.74,15.57c-27.28,0-49.47,22.19-49.47,49.47c0,27.28,22.19,49.47,49.47,49.47
		c27.28,0,49.47-22.19,49.47-49.47C113.21,37.76,91.02,15.57,63.74,15.57z"/>
</g>
</svg>
