<svg width="232" height="54" viewBox="0 0 232 54" fill="none" xmlns="http://www.w3.org/2000/svg">
<path d="M54.9805 30.1423H60.0011C60.1922 31.4925 60.7451 32.494 61.6638 33.1467C62.5826 33.7995 63.9079 34.1279 65.6438 34.1279C67.1195 34.1279 68.2334 33.8644 68.9855 33.3414C69.7335 32.8183 70.1116 32.0398 70.1116 31.014C70.1116 29.5179 67.957 28.2772 63.6477 27.296L63.4973 27.2636C63.3835 27.2393 63.2127 27.2028 62.9769 27.146C60.6719 26.6432 59.0255 26.0797 58.0417 25.4553C57.1676 24.8957 56.5009 24.1456 56.0456 23.205C55.5862 22.2603 55.3585 21.1493 55.3585 19.864C55.3585 17.4637 56.1757 15.627 57.8099 14.3458C59.4442 13.0686 61.8061 12.428 64.8958 12.428C67.7821 12.428 70.0425 13.1091 71.6686 14.4715C73.2988 15.8338 74.1566 17.7516 74.246 20.233H69.3595C69.2701 19.0369 68.8107 18.1287 67.9813 17.5043C67.152 16.8799 65.9731 16.5677 64.4405 16.5677C63.107 16.5677 62.0826 16.8272 61.359 17.3462C60.6353 17.8651 60.2776 18.6031 60.2776 19.564C60.2776 20.8696 61.6801 21.8467 64.4933 22.4954C65.2535 22.6738 65.8471 22.8117 66.2739 22.913C68.0749 23.3712 69.3554 23.728 70.1116 23.9835C70.8677 24.2389 71.5263 24.5268 72.0832 24.839C73.0914 25.3985 73.8476 26.1364 74.3517 27.0568C74.8558 27.9772 75.1078 29.08 75.1078 30.3653C75.1078 32.9319 74.2419 34.9226 72.506 36.3336C70.7702 37.7446 68.3269 38.4501 65.1681 38.4501C62.0582 38.4501 59.6149 37.7284 57.8465 36.289C56.0659 34.8456 55.1146 32.798 54.9805 30.1423Z" fill="white"/>
<path d="M80.7306 13.0281H85.8692V28.5002C85.8692 30.4099 86.2513 31.8007 87.0115 32.6764C87.7717 33.5522 88.9832 33.9901 90.6378 33.9901C92.3168 33.9901 93.5404 33.5563 94.3047 32.6846C95.073 31.8128 95.4552 30.4181 95.4552 28.4962V13.0281H100.541V29.0517C100.541 32.0764 99.6912 34.3996 97.996 36.0174C96.3008 37.6352 93.8575 38.4461 90.6662 38.4461C87.4547 38.4461 84.9951 37.6392 83.2877 36.0255C81.5803 34.4118 80.7266 32.0885 80.7266 29.0517V13.0281H80.7306Z" fill="white"/>
<path d="M107.516 37.7608V13.0969H112.601V37.7608H107.516Z" fill="white"/>
<path d="M124.818 37.7608V17.5002H117.48V13.0969H137.189V17.5002H129.904V37.7608H124.818Z" fill="white"/>
<path d="M141.918 37.7608V13.0969H149.439L154.358 31.8695L159.208 13.0969H166.761V37.7608H161.992V17.8691L156.972 37.7608H151.768L146.683 17.8691V37.7608H141.918Z" fill="white"/>
<path d="M173.857 37.7608V13.0969H178.943V37.7608H173.857Z" fill="white"/>
<path d="M186.037 37.7608V13.0969H191.359L201.4 30.0409V13.0969H206.421V37.7608H201.164L191.054 20.8127V37.7567H186.037V37.7608Z" fill="white"/>
<path d="M213.309 37.7608V13.0969H231.273V17.3826H218.329V22.6413H230.163V26.8621H218.329V33.2075H231.879V37.7608H213.309Z" fill="white"/>
<path d="M28.7908 0.365723L36.7547 11.686L23.8026 39.5327L10.8465 11.686L18.8104 0.365723L0.792969 11.609L23.8026 53.7642L46.8083 11.609L28.7908 0.365723Z" fill="white"/>
<path d="M25.0306 4.46487L26.2583 2.63627L23.8028 0.365723L21.3433 2.63627L22.571 4.46487L20.5059 26.5541L23.8028 32.9724L27.0957 26.5541L25.0306 4.46487Z" fill="white"/>
</svg>
