<?xml version="1.0" standalone="no"?>
<!DOCTYPE svg PUBLIC "-//W3C//DTD SVG 20010904//EN"
 "http://www.w3.org/TR/2001/REC-SVG-20010904/DTD/svg10.dtd">
<svg version="1.0" xmlns="http://www.w3.org/2000/svg"
 width="520.000000pt" height="520.000000pt" viewBox="0 0 520.000000 520.000000"
 preserveAspectRatio="xMidYMid meet">
<metadata>
Created by potrace 1.14, written by Peter Selinger 2001-2017
</metadata>
<g transform="translate(0.000000,520.000000) scale(0.100000,-0.100000)"
fill="#000000" stroke="none">
<path d="M2435 4653 c-105 -11 -253 -37 -335 -58 -52 -14 -102 -27 -110 -29
-55 -14 -232 -87 -325 -134 -356 -181 -650 -462 -854 -816 -28 -48 -51 -89
-51 -91 0 -2 -18 -42 -40 -89 -22 -47 -40 -92 -40 -99 0 -7 -4 -17 -9 -22 -17
-19 -84 -255 -96 -341 -4 -21 -8 -46 -10 -54 -18 -66 -26 -418 -12 -540 13
-119 24 -176 53 -292 154 -616 611 -1145 1199 -1388 114 -47 114 -47 185 -69
212 -66 358 -86 615 -86 203 0 271 7 450 46 223 49 477 158 680 293 308 206
547 478 710 810 52 107 132 311 135 344 0 4 5 25 11 47 6 22 13 51 15 65 3 14
7 31 9 38 2 7 7 34 11 60 3 26 8 50 10 53 2 4 7 49 11 100 35 461 -49 841
-277 1244 -27 49 -120 186 -134 200 -6 6 -24 28 -41 50 -89 120 -293 306 -454
415 -252 169 -580 295 -846 325 -33 4 -69 9 -80 12 -24 5 -336 10 -380 6z
m375 -87 c250 -25 587 -137 785 -261 22 -14 47 -28 55 -32 23 -10 185 -130
233 -172 102 -89 218 -212 287 -306 25 -33 48 -62 51 -65 14 -11 129 -211 164
-285 42 -89 136 -351 128 -358 -2 -3 0 -14 5 -24 5 -10 12 -37 16 -61 3 -24 8
-47 11 -51 4 -8 7 -31 22 -181 19 -196 2 -414 -50 -655 -2 -5 -6 -16 -10 -22
-5 -7 -6 -17 -2 -22 3 -5 1 -12 -4 -15 -5 -3 -12 -21 -15 -39 -11 -56 -84
-236 -137 -336 -61 -115 -142 -238 -216 -329 -54 -67 -219 -232 -278 -278 -27
-21 -52 -42 -55 -45 -18 -22 -215 -147 -299 -189 -231 -116 -432 -177 -676
-207 -119 -14 -441 -8 -530 10 -28 6 -104 19 -110 18 -2 0 -19 5 -37 10 -42
13 -138 40 -158 44 -8 2 -51 17 -95 35 -600 239 -1034 718 -1203 1330 -12 41
-23 86 -26 100 -2 14 -7 36 -10 50 -35 156 -41 513 -11 670 3 13 7 42 11 64
30 204 155 514 288 714 132 199 320 399 482 512 173 121 365 223 519 275 11 3
21 6 22 6 2 -1 20 6 40 14 44 17 178 50 243 60 25 4 54 9 65 11 11 3 56 7 100
11 44 3 81 7 82 8 6 4 251 -3 313 -9z"/>
<path d="M2058 3920 c-38 -24 -143 -104 -146 -112 -2 -5 -8 -8 -13 -8 -6 0
-15 -4 -22 -10 -7 -5 -39 -31 -72 -58 -60 -48 -61 -49 -133 -49 -43 0 -79 -6
-85 -12 -17 -17 -18 -2476 -1 -2499 10 -14 120 -15 1009 -16 747 -1 1002 2
1014 11 15 10 16 126 16 1248 0 857 -3 1242 -10 1252 -8 10 -32 15 -85 15 -59
1 -79 5 -95 20 -11 10 -85 67 -165 126 l-145 107 -522 0 c-442 0 -525 -2 -545
-15z m995 -77 c-2 -7 -4 -25 -5 -42 -1 -17 -7 -32 -13 -34 -26 -8 -866 0 -874
9 -9 9 -22 70 -16 76 2 2 207 3 457 3 334 -1 452 -4 451 -12z m-979 -73 c10
-63 66 -364 71 -380 2 -8 7 -35 10 -60 3 -25 8 -53 11 -62 7 -24 13 -57 20
-108 3 -25 8 -48 10 -51 2 -3 6 -21 9 -40 5 -33 10 -58 35 -183 7 -32 13 -68
15 -80 1 -12 6 -37 9 -56 9 -43 11 -55 20 -105 4 -22 11 -60 17 -85 5 -25 11
-58 14 -75 2 -16 9 -55 15 -85 7 -30 14 -68 16 -85 8 -45 43 -233 54 -285 6
-25 12 -58 15 -75 3 -16 7 -41 10 -55 3 -14 7 -38 10 -55 2 -16 7 -41 10 -55
3 -14 8 -38 11 -55 3 -16 9 -48 14 -70 5 -22 9 -44 9 -50 0 -10 -20 30 -24 50
-1 6 -12 30 -23 55 -23 52 -77 183 -195 475 -79 194 -292 715 -303 742 -3 6
46 53 109 103 64 51 118 101 120 112 7 26 -14 38 -193 106 l-153 58 3 70 c3
83 7 175 9 229 1 34 6 43 39 65 20 14 39 27 42 30 3 3 21 17 40 30 19 13 37
27 40 30 16 18 66 48 72 42 3 -4 9 -23 12 -42z m1263 -97 l33 -28 6 -145 c7
-149 7 -181 2 -184 -2 -1 -66 -26 -143 -55 -190 -71 -182 -67 -195 -91 -12
-22 -2 -36 75 -97 22 -17 66 -52 97 -78 l57 -46 -18 -47 c-34 -84 -132 -326
-146 -357 -7 -16 -41 -100 -75 -185 -73 -180 -135 -331 -156 -377 -8 -17 -14
-37 -14 -45 0 -8 -5 -19 -11 -25 -6 -6 -12 -17 -13 -24 -2 -8 -8 -26 -14 -41
-69 -168 -85 -204 -92 -212 -5 -4 -5 9 0 30 5 22 11 53 14 69 3 17 8 41 11 55
3 14 10 50 15 80 6 30 12 66 15 80 3 14 10 52 16 85 6 33 17 92 24 130 16 81
26 134 30 155 3 21 14 79 36 190 10 52 20 109 23 125 3 17 7 40 10 51 2 12 7
37 10 55 5 32 9 52 21 109 3 14 8 42 11 64 3 21 8 48 10 60 3 11 11 57 19 101
8 44 17 91 20 105 9 47 47 245 51 270 3 14 9 48 14 75 14 67 19 94 26 135 4
19 8 44 10 55 2 11 7 36 10 55 4 19 8 38 11 42 4 7 142 -89 200 -139z m-317
-3 c5 -8 6 -18 4 -22 -5 -8 -8 -18 -24 -108 -12 -65 -18 -96 -25 -130 -3 -14
-8 -43 -11 -65 -3 -22 -7 -42 -9 -45 -2 -3 -6 -26 -10 -50 -3 -25 -8 -52 -10
-60 -2 -8 -7 -30 -10 -47 -3 -18 -14 -78 -25 -133 -11 -55 -22 -115 -25 -133
-3 -17 -10 -54 -15 -82 -5 -27 -12 -62 -14 -78 -3 -15 -7 -35 -10 -45 -3 -9
-7 -33 -10 -52 -5 -33 -9 -50 -21 -110 -3 -14 -8 -42 -11 -64 -6 -43 -8 -52
-22 -116 -6 -25 -14 -65 -17 -90 -4 -25 -19 -110 -35 -190 -16 -80 -31 -160
-34 -177 -12 -66 -18 -99 -27 -143 -5 -25 -12 -63 -14 -85 -3 -21 -10 -55 -15
-75 -10 -37 -22 -106 -23 -127 -1 -28 -15 0 -22 43 -8 59 -21 125 -30 169 -2
6 -5 26 -9 45 -11 63 -16 94 -36 195 -10 55 -21 111 -24 125 -2 14 -12 66 -21
115 -22 115 -20 107 -50 260 -29 156 -34 179 -41 225 -3 19 -7 43 -10 52 -6
19 -9 36 -19 98 -7 44 -10 60 -20 110 -3 14 -8 41 -11 60 -3 19 -7 43 -10 52
-5 19 -10 40 -18 89 -3 19 -8 45 -11 59 -3 14 -8 41 -11 60 -3 19 -14 80 -25
135 -11 55 -22 115 -25 134 -3 18 -8 43 -10 55 -16 77 -30 156 -28 158 1 2
190 3 419 2 343 0 418 -3 425 -14z m-1279 -175 c-1 -55 -4 -122 -6 -150 -3
-65 7 -89 42 -103 15 -6 79 -30 141 -53 61 -24 112 -45 112 -48 0 -4 -40 -37
-90 -76 -49 -38 -92 -80 -96 -91 -5 -18 103 -302 181 -479 7 -16 28 -66 45
-110 17 -44 38 -93 45 -110 8 -16 77 -185 153 -375 77 -190 168 -414 202 -498
35 -84 60 -155 57 -158 -4 -4 -761 -8 -857 -5 -13 1 -15 139 -15 1181 l0 1181
45 -3 45 -3 -4 -100z m1804 -1077 l0 -1178 -30 -1 c-39 -1 -838 0 -847 0 -5 1
31 97 62 166 5 11 46 110 90 220 45 110 85 209 90 220 5 11 64 155 131 320 67
165 142 350 166 410 25 61 70 170 100 244 56 140 60 171 24 190 -24 14 -155
120 -159 130 -1 5 19 16 45 26 153 56 229 88 239 100 10 13 10 147 1 272 -2
29 -2 55 2 58 3 3 23 5 46 3 l40 -3 0 -1177z"/>
</g>
</svg>
